<?xml version="1.0" standalone="no"?>
<!DOCTYPE svg PUBLIC "-//W3C//DTD SVG 20010904//EN"
 "http://www.w3.org/TR/2001/REC-SVG-20010904/DTD/svg10.dtd">
<svg version="1.0" xmlns="http://www.w3.org/2000/svg"
 width="1024.000000pt" height="1024.000000pt" viewBox="0 0 1024.000000 1024.000000"
 preserveAspectRatio="xMidYMid meet">
<metadata>
Created by potrace 1.14, written by Peter Selinger 2001-2017
</metadata>
<g transform="translate(0.000000,1024.000000) scale(0.100000,-0.100000)"
fill="#000000" stroke="none">
<path d="M4743 9469 c-74 -9 -114 -35 -142 -93 -24 -48 -24 -53 -25 -332 0
-156 -1 -284 -2 -284 -1 0 -39 -7 -85 -16 -46 -9 -95 -18 -109 -20 -14 -3 -52
-12 -85 -20 -33 -9 -69 -17 -81 -20 -43 -8 -233 -67 -329 -101 -190 -68 -467
-197 -595 -278 -22 -14 -42 -25 -44 -25 -11 0 -265 -176 -346 -238 -246 -192
-506 -451 -697 -697 -182 -235 -332 -485 -444 -744 -28 -64 -55 -125 -60 -136
-35 -76 -137 -401 -153 -485 -3 -14 -14 -68 -26 -120 -12 -52 -24 -115 -27
-140 -3 -25 -7 -47 -9 -49 -2 -2 -133 -5 -291 -5 -274 -2 -290 -3 -329 -24
-23 -12 -53 -38 -65 -59 -24 -38 -24 -38 -27 -435 -4 -447 -2 -462 59 -520 49
-47 60 -48 389 -51 l265 -2 6 -45 c32 -209 126 -545 218 -775 175 -435 475
-883 822 -1225 324 -320 642 -546 1018 -726 75 -36 145 -69 156 -74 11 -4 34
-13 50 -20 116 -48 431 -148 515 -164 14 -2 48 -10 75 -16 28 -6 61 -14 75
-16 14 -2 34 -6 46 -9 12 -3 39 -7 60 -11 21 -3 41 -8 44 -11 3 -2 5 -127 6
-276 1 -172 5 -287 13 -314 12 -45 64 -98 109 -110 15 -5 209 -8 432 -8 l405
0 42 24 c30 17 49 38 64 70 21 44 22 61 23 331 l1 285 60 12 c33 6 76 14 95
17 73 11 322 77 451 119 242 80 533 215 734 339 86 54 334 224 345 237 3 4 30
26 60 51 460 370 843 866 1074 1388 113 254 215 585 252 818 8 53 12 73 19 95
6 18 19 19 282 19 306 0 337 5 383 57 49 55 51 82 48 511 -3 397 -3 397 -27
435 -12 21 -42 47 -65 59 -39 21 -55 22 -321 24 -323 2 -306 2 -303 12 12 46
-131 599 -191 737 -8 18 -21 50 -26 65 -3 9 -22 54 -60 140 -130 295 -342 623
-570 886 -101 115 -299 313 -400 399 -38 33 -72 62 -75 65 -14 16 -186 144
-270 202 -395 271 -842 458 -1334 557 -82 17 -151 33 -155 36 -3 4 -6 132 -7
285 -1 273 -1 279 -25 326 -19 38 -34 54 -70 72 -46 23 -53 23 -410 25 -200 1
-388 -1 -416 -4z m-167 -2170 c-1 -390 4 -442 49 -489 51 -54 80 -57 509 -55
431 1 436 2 489 64 14 17 29 48 33 69 4 20 8 200 8 400 0 320 2 362 16 362 8
0 53 -12 100 -26 47 -14 92 -27 100 -29 209 -52 609 -257 798 -410 445 -359
710 -725 892 -1229 31 -86 82 -278 75 -284 -3 -3 -175 -6 -383 -7 -344 -1
-380 -3 -412 -19 -38 -20 -56 -38 -80 -77 -13 -20 -15 -89 -17 -429 -2 -439
-1 -455 52 -510 45 -47 74 -50 474 -50 204 0 371 -3 371 -8 0 -25 -92 -327
-114 -377 -8 -16 -26 -59 -41 -95 -160 -383 -466 -772 -820 -1042 -58 -44
-219 -152 -260 -174 -11 -6 -55 -29 -97 -52 -43 -23 -117 -60 -165 -81 -126
-55 -391 -143 -428 -142 -2 0 -17 -4 -33 -8 l-28 -8 0 376 c-1 355 -2 379 -21
422 -14 30 -33 54 -59 70 l-39 24 -425 0 -425 0 -37 -23 c-22 -14 -45 -41 -59
-69 -22 -46 -23 -54 -23 -422 -1 -328 -3 -376 -16 -374 -21 2 -40 7 -220 58
-44 12 -188 68 -278 109 -434 193 -834 534 -1107 946 -110 166 -230 413 -295
610 -21 64 -69 238 -70 252 0 4 164 7 364 7 242 0 380 4 410 12 54 13 100 59
115 116 15 52 14 773 -1 830 -14 58 -66 109 -122 121 -22 4 -204 8 -404 7
l-363 0 6 25 c4 14 9 33 11 43 2 9 6 25 8 35 67 285 259 679 446 916 123 156
314 350 450 459 174 140 398 275 590 357 135 57 411 147 461 149 14 1 15 -37
15 -350z"/>
<path d="M5010 5654 c-209 -43 -398 -240 -426 -443 -25 -182 28 -340 156 -470
113 -113 238 -163 395 -157 114 4 134 9 224 53 132 66 244 200 286 346 17 59
23 170 11 223 -3 16 -8 40 -11 54 -3 14 -19 53 -35 87 -35 71 -163 206 -234
248 -109 64 -239 85 -366 59z"/>
</g>
</svg>
