<?xml version="1.0" standalone="no"?>
<!DOCTYPE svg PUBLIC "-//W3C//DTD SVG 20010904//EN"
 "http://www.w3.org/TR/2001/REC-SVG-20010904/DTD/svg10.dtd">
<svg version="1.0" xmlns="http://www.w3.org/2000/svg"
 width="1024.000000pt" height="1024.000000pt" viewBox="0 0 1024.000000 1024.000000"
 preserveAspectRatio="xMidYMid meet">
<metadata>
Created by potrace 1.14, written by Peter Selinger 2001-2017
</metadata>
<g transform="translate(0.000000,1024.000000) scale(0.100000,-0.100000)"
fill="#000000" stroke="none">
<path d="M4888 10235 c-2 -1 -43 -6 -93 -9 -49 -4 -99 -9 -110 -11 -11 -2 -42
-7 -70 -10 -59 -6 -160 -22 -195 -30 -14 -3 -40 -7 -58 -10 -111 -15 -622
-166 -630 -187 -2 -4 -11 -8 -20 -8 -9 -1 -35 -9 -57 -20 -22 -11 -44 -19 -48
-20 -14 0 -320 -152 -372 -184 -27 -17 -67 -40 -87 -51 -21 -11 -38 -23 -38
-27 0 -5 -3 -7 -7 -6 -18 5 -252 -160 -413 -291 -125 -101 -162 -134 -294
-267 -109 -110 -120 -121 -214 -234 -34 -41 -68 -82 -75 -89 -6 -8 -35 -47
-64 -85 -29 -39 -56 -76 -61 -82 -5 -5 -22 -30 -38 -55 -16 -24 -32 -46 -37
-47 -4 -2 -5 -8 -1 -13 3 -5 -2 -12 -10 -15 -9 -3 -16 -10 -16 -14 0 -5 -24
-48 -53 -97 -30 -48 -64 -108 -78 -133 -13 -25 -28 -48 -32 -51 -5 -3 -8 -9
-8 -13 1 -3 -20 -50 -46 -104 -26 -53 -48 -99 -49 -102 0 -3 -10 -27 -22 -53
-12 -27 -22 -51 -22 -53 0 -3 -8 -24 -19 -47 -21 -46 -98 -267 -106 -301 -2
-11 -15 -59 -29 -106 -14 -47 -27 -96 -29 -110 -3 -14 -10 -45 -17 -70 -7 -25
-14 -56 -16 -70 -2 -14 -6 -36 -9 -50 -3 -14 -8 -45 -11 -70 -3 -25 -8 -47 -9
-50 -4 -6 -18 -134 -19 -167 -1 -13 -3 -23 -6 -23 -13 0 -19 -555 -7 -647 9
-67 19 -136 23 -158 3 -11 7 -35 10 -54 3 -19 12 -64 21 -100 8 -36 18 -82 22
-101 4 -19 18 -70 30 -113 12 -43 24 -86 26 -95 6 -31 106 -326 125 -367 9
-22 23 -58 30 -80 7 -22 26 -68 41 -102 15 -34 25 -64 22 -67 -4 -3 -1 -6 5
-6 7 0 11 -3 10 -7 -2 -12 2 -21 128 -298 66 -145 209 -432 281 -565 151 -277
204 -372 336 -595 91 -154 213 -353 271 -445 13 -19 53 -82 89 -140 37 -58 70
-109 75 -115 4 -5 23 -35 42 -65 19 -30 38 -56 42 -58 5 -2 8 -10 8 -18 0 -8
5 -14 11 -14 5 0 7 -4 4 -10 -3 -5 -2 -10 2 -10 5 0 17 -16 27 -35 11 -19 23
-35 28 -35 4 0 8 -4 8 -9 0 -12 191 -295 201 -299 5 -2 9 -8 9 -12 0 -5 57
-91 128 -190 70 -100 132 -189 137 -198 6 -10 12 -19 15 -22 8 -7 153 -208
165 -228 6 -9 12 -19 15 -22 3 -3 37 -48 75 -100 93 -128 298 -404 305 -410 3
-3 34 -43 69 -90 35 -47 68 -86 73 -88 4 -2 8 -8 8 -14 0 -6 14 -27 30 -47 17
-20 34 -40 38 -46 13 -16 115 -149 127 -163 5 -7 18 -22 28 -33 9 -10 17 -23
17 -28 0 -5 3 -11 8 -13 10 -4 92 -105 92 -114 0 -3 8 -14 18 -23 10 -9 33
-36 51 -61 44 -57 111 -122 168 -161 43 -30 147 -77 188 -85 65 -13 87 -16
151 -16 42 0 103 9 150 22 80 21 204 83 204 100 0 6 5 10 11 10 12 0 104 92
133 134 11 15 28 37 39 49 10 12 33 41 50 64 17 24 34 43 39 43 4 0 8 6 8 14
0 8 3 16 8 18 4 1 23 23 42 48 19 25 39 51 45 57 5 7 19 24 30 39 11 14 28 35
38 45 9 11 17 22 17 26 0 4 11 18 24 32 13 15 61 76 107 136 102 135 324 432
347 463 9 13 28 39 42 57 14 18 43 59 65 90 22 31 48 66 57 78 16 21 98 134
126 174 7 10 59 83 115 163 56 80 132 188 167 240 36 52 73 104 82 114 10 11
18 26 18 33 0 8 7 16 15 19 8 4 15 10 15 15 0 4 25 45 55 89 30 44 55 85 55
90 0 4 4 10 8 12 5 2 27 32 50 68 23 36 46 70 52 77 5 7 15 24 22 38 6 14 14
25 18 25 4 0 15 15 24 33 19 37 39 70 46 77 7 6 43 61 50 75 15 31 206 331
212 333 5 2 8 8 8 14 0 6 18 39 40 74 22 35 40 68 40 74 0 5 5 10 10 10 6 0
10 4 10 9 0 5 33 65 73 133 40 67 77 130 80 138 4 8 15 29 25 45 29 47 174
312 216 395 21 41 43 79 47 85 5 5 9 17 9 26 0 10 4 19 9 21 6 2 122 228 126
248 1 3 20 43 42 90 22 47 41 90 43 95 1 6 10 26 20 45 28 56 109 247 147 350
20 52 40 106 46 120 6 14 11 30 13 35 1 6 12 37 24 70 25 70 80 242 85 268 2
10 9 33 15 52 5 19 15 50 20 68 6 18 10 42 10 54 0 11 3 23 7 27 4 3 8 17 10
29 2 12 10 54 18 94 8 39 17 89 20 110 3 21 7 47 10 58 26 121 26 641 0 774
-2 13 -7 47 -10 75 -11 99 -17 134 -41 246 -3 14 -7 36 -10 50 -7 38 -45 193
-51 210 -3 8 -8 23 -10 33 -4 25 -43 148 -53 172 -5 11 -14 37 -20 58 -7 22
-18 51 -26 65 -8 15 -14 32 -14 37 0 17 -67 172 -132 304 -50 102 -127 240
-191 345 -32 52 -142 212 -154 224 -7 7 -13 16 -13 20 0 4 -13 21 -28 39 -15
17 -36 44 -47 59 -11 15 -29 38 -40 51 -11 12 -33 39 -50 60 -74 92 -247 268
-365 373 -40 36 -78 70 -84 75 -14 13 -138 111 -191 152 -22 17 -92 65 -155
106 -63 42 -120 81 -127 87 -7 5 -15 10 -19 10 -3 0 -39 19 -78 43 -75 45
-398 207 -414 207 -5 0 -31 9 -57 21 -78 35 -290 110 -310 110 -2 0 -23 6 -46
14 -23 9 -51 17 -63 19 -12 3 -68 17 -126 31 -58 15 -118 29 -135 31 -16 3
-50 9 -75 14 -25 5 -67 12 -95 16 -27 4 -57 8 -65 9 -8 2 -46 6 -85 10 -38 4
-88 9 -110 12 -44 5 -552 13 -557 8z m234 -2558 c32 0 61 3 65 6 3 4 11 3 17
0 6 -4 20 -8 31 -9 111 -9 238 -40 352 -85 90 -35 188 -86 217 -111 11 -10 26
-18 33 -18 7 0 13 -4 13 -8 0 -4 12 -15 28 -25 15 -9 43 -31 63 -49 21 -18 45
-40 55 -49 33 -28 108 -112 150 -169 49 -66 124 -191 124 -208 0 -7 5 -12 12
-12 6 0 8 -3 5 -7 -4 -3 -3 -11 2 -17 10 -12 70 -184 77 -219 32 -168 39 -247
31 -377 -5 -78 -14 -141 -29 -195 -5 -22 -12 -50 -14 -63 -3 -12 -14 -46 -25
-75 -11 -28 -20 -53 -19 -55 1 -1 -17 -42 -40 -89 -81 -167 -214 -331 -363
-448 -21 -17 -44 -36 -52 -42 -7 -7 -17 -13 -21 -13 -4 0 -15 -6 -23 -14 -48
-43 -302 -153 -394 -172 -12 -2 -33 -7 -47 -10 -56 -12 -130 -18 -217 -18 -51
-1 -93 -5 -93 -9 0 -5 -5 -5 -11 -1 -6 3 -31 8 -55 11 -24 2 -66 8 -92 13 -26
6 -58 12 -72 15 -51 8 -188 58 -266 96 -146 70 -309 194 -404 306 -77 90 -140
185 -193 290 -26 52 -84 214 -93 256 -19 101 -27 151 -29 207 -2 36 -4 66 -5
68 -3 3 -3 41 0 45 1 1 3 29 5 62 4 105 30 233 66 333 39 107 133 286 171 326
11 12 27 33 36 48 17 30 169 180 220 218 19 14 40 31 47 38 8 6 17 12 21 12 4
0 15 6 23 14 50 45 311 157 400 172 14 3 33 7 41 9 17 5 105 17 137 19 12 1
25 5 29 9 4 3 11 4 17 0 6 -3 37 -6 69 -6z"/>
</g>
</svg>
