<svg xmlns="http://www.w3.org/2000/svg" version="1.1" xmlns:xlink="http://www.w3.org/1999/xlink" xmlns:svgjs="http://svgjs.dev/svgjs" width="5120" height="1440" preserveAspectRatio="none" viewBox="0 0 5120 1440"><g mask="url(&quot;#SvgjsMask2161&quot;)" fill="none"><rect width="5120" height="1440" x="0" y="0" fill="url(&quot;#SvgjsLinearGradient2162&quot;)"></rect><use xlink:href="#SvgjsSymbol2169" x="0" y="0"></use><use xlink:href="#SvgjsSymbol2169" x="0" y="720"></use><use xlink:href="#SvgjsSymbol2169" x="720" y="0"></use><use xlink:href="#SvgjsSymbol2169" x="720" y="720"></use><use xlink:href="#SvgjsSymbol2169" x="1440" y="0"></use><use xlink:href="#SvgjsSymbol2169" x="1440" y="720"></use><use xlink:href="#SvgjsSymbol2169" x="2160" y="0"></use><use xlink:href="#SvgjsSymbol2169" x="2160" y="720"></use><use xlink:href="#SvgjsSymbol2169" x="2880" y="0"></use><use xlink:href="#SvgjsSymbol2169" x="2880" y="720"></use><use xlink:href="#SvgjsSymbol2169" x="3600" y="0"></use><use xlink:href="#SvgjsSymbol2169" x="3600" y="720"></use><use xlink:href="#SvgjsSymbol2169" x="4320" y="0"></use><use xlink:href="#SvgjsSymbol2169" x="4320" y="720"></use><use xlink:href="#SvgjsSymbol2169" x="5040" y="0"></use><use xlink:href="#SvgjsSymbol2169" x="5040" y="720"></use></g><defs><mask id="SvgjsMask2161"><rect width="5120" height="1440" fill="#ffffff"></rect></mask><linearGradient x1="17.97%" y1="-63.89%" x2="82.03%" y2="163.89%" gradientUnits="userSpaceOnUse" id="SvgjsLinearGradient2162"><stop stop-color="rgba(29, 22, 24, 1)" offset="0.02"></stop><stop stop-color="rgba(31, 13, 17, 1)" offset="1"></stop></linearGradient><path d="M-1 0 a1 1 0 1 0 2 0 a1 1 0 1 0 -2 0z" id="SvgjsPath2166"></path><path d="M-3 0 a3 3 0 1 0 6 0 a3 3 0 1 0 -6 0z" id="SvgjsPath2165"></path><path d="M-5 0 a5 5 0 1 0 10 0 a5 5 0 1 0 -10 0z" id="SvgjsPath2163"></path><path d="M2 -2 L-2 2z" id="SvgjsPath2167"></path><path d="M6 -6 L-6 6z" id="SvgjsPath2164"></path><path d="M30 -30 L-30 30z" id="SvgjsPath2168"></path></defs><symbol id="SvgjsSymbol2169"><use xlink:href="#SvgjsPath2163" x="30" y="30" stroke="rgba(255, 201, 103, 1)"></use><use xlink:href="#SvgjsPath2164" x="30" y="90" stroke="rgba(103, 200, 255, 1)"></use><use xlink:href="#SvgjsPath2163" x="30" y="150" stroke="rgba(103, 200, 255, 1)"></use><use xlink:href="#SvgjsPath2163" x="30" y="210" stroke="rgba(206, 103, 255, 1)"></use><use xlink:href="#SvgjsPath2165" x="30" y="270" stroke="rgba(206, 103, 255, 1)"></use><use xlink:href="#SvgjsPath2163" x="30" y="330" stroke="rgba(103, 200, 255, 1)"></use><use xlink:href="#SvgjsPath2164" x="30" y="390" stroke="rgba(255, 103, 103, 1)"></use><use xlink:href="#SvgjsPath2164" x="30" y="450" stroke="rgba(255, 201, 103, 1)"></use><use xlink:href="#SvgjsPath2163" x="30" y="510" stroke="rgba(255, 201, 103, 1)"></use><use xlink:href="#SvgjsPath2164" x="30" y="570" stroke="rgba(206, 103, 255, 1)"></use><use xlink:href="#SvgjsPath2164" x="30" y="630" stroke="rgba(103, 255, 104, 1)"></use><use xlink:href="#SvgjsPath2166" x="30" y="690" stroke="rgba(103, 200, 255, 1)"></use><use xlink:href="#SvgjsPath2163" x="90" y="30" stroke="rgba(103, 200, 255, 1)"></use><use xlink:href="#SvgjsPath2163" x="90" y="90" stroke="rgba(255, 201, 103, 1)"></use><use xlink:href="#SvgjsPath2163" x="90" y="150" stroke="rgba(255, 103, 103, 1)"></use><use xlink:href="#SvgjsPath2163" x="90" y="210" stroke="rgba(255, 103, 103, 1)"></use><use xlink:href="#SvgjsPath2167" x="90" y="270" stroke="rgba(103, 200, 255, 1)"></use><use xlink:href="#SvgjsPath2166" x="90" y="330" stroke="rgba(206, 103, 255, 1)"></use><use xlink:href="#SvgjsPath2167" x="90" y="390" stroke="rgba(206, 103, 255, 1)"></use><use xlink:href="#SvgjsPath2166" x="90" y="450" stroke="rgba(255, 201, 103, 1)"></use><use xlink:href="#SvgjsPath2166" x="90" y="510" stroke="rgba(230, 255, 103, 1)"></use><use xlink:href="#SvgjsPath2165" x="90" y="570" stroke="rgba(255, 201, 103, 1)"></use><use xlink:href="#SvgjsPath2163" x="90" y="630" stroke="rgba(103, 200, 255, 1)"></use><use xlink:href="#SvgjsPath2163" x="90" y="690" stroke="rgba(206, 103, 255, 1)"></use><use xlink:href="#SvgjsPath2163" x="150" y="30" stroke="rgba(103, 255, 104, 1)"></use><use xlink:href="#SvgjsPath2163" x="150" y="90" stroke="rgba(255, 103, 103, 1)"></use><use xlink:href="#SvgjsPath2165" x="150" y="150" stroke="rgba(206, 103, 255, 1)"></use><use xlink:href="#SvgjsPath2164" x="150" y="210" stroke="rgba(255, 103, 103, 1)"></use><use xlink:href="#SvgjsPath2164" x="150" y="270" stroke="rgba(103, 255, 104, 1)"></use><use xlink:href="#SvgjsPath2163" x="150" y="330" stroke="rgba(103, 255, 104, 1)"></use><use xlink:href="#SvgjsPath2167" x="150" y="390" stroke="rgba(255, 103, 103, 1)"></use><use xlink:href="#SvgjsPath2168" x="150" y="450" stroke="rgba(255, 103, 103, 1)" stroke-width="3"></use><use xlink:href="#SvgjsPath2164" x="150" y="510" stroke="rgba(103, 200, 255, 1)"></use><use xlink:href="#SvgjsPath2164" x="150" y="570" stroke="rgba(230, 255, 103, 1)"></use><use xlink:href="#SvgjsPath2164" x="150" y="630" stroke="rgba(230, 255, 103, 1)"></use><use xlink:href="#SvgjsPath2163" x="150" y="690" stroke="rgba(255, 103, 103, 1)"></use><use xlink:href="#SvgjsPath2163" x="210" y="30" stroke="rgba(206, 103, 255, 1)"></use><use xlink:href="#SvgjsPath2164" x="210" y="90" stroke="rgba(230, 255, 103, 1)"></use><use xlink:href="#SvgjsPath2165" x="210" y="150" stroke="rgba(103, 255, 104, 1)"></use><use xlink:href="#SvgjsPath2163" x="210" y="210" stroke="rgba(230, 255, 103, 1)"></use><use xlink:href="#SvgjsPath2163" x="210" y="270" stroke="rgba(255, 103, 103, 1)"></use><use xlink:href="#SvgjsPath2163" x="210" y="330" stroke="rgba(255, 103, 103, 1)"></use><use xlink:href="#SvgjsPath2168" x="210" y="390" stroke="rgba(206, 103, 255, 1)" stroke-width="3"></use><use xlink:href="#SvgjsPath2163" x="210" y="450" stroke="rgba(206, 103, 255, 1)"></use><use xlink:href="#SvgjsPath2164" x="210" y="510" stroke="rgba(206, 103, 255, 1)"></use><use xlink:href="#SvgjsPath2163" x="210" y="570" stroke="rgba(230, 255, 103, 1)"></use><use xlink:href="#SvgjsPath2163" x="210" y="630" stroke="rgba(103, 255, 104, 1)"></use><use xlink:href="#SvgjsPath2163" x="210" y="690" stroke="rgba(103, 200, 255, 1)"></use><use xlink:href="#SvgjsPath2166" x="270" y="30" stroke="rgba(230, 255, 103, 1)"></use><use xlink:href="#SvgjsPath2167" x="270" y="90" stroke="rgba(103, 255, 104, 1)"></use><use xlink:href="#SvgjsPath2163" x="270" y="150" stroke="rgba(103, 200, 255, 1)"></use><use xlink:href="#SvgjsPath2163" x="270" y="210" stroke="rgba(255, 103, 103, 1)"></use><use xlink:href="#SvgjsPath2164" x="270" y="270" stroke="rgba(206, 103, 255, 1)"></use><use xlink:href="#SvgjsPath2163" x="270" y="330" stroke="rgba(103, 200, 255, 1)"></use><use xlink:href="#SvgjsPath2164" x="270" y="390" stroke="rgba(206, 103, 255, 1)"></use><use xlink:href="#SvgjsPath2163" x="270" y="450" stroke="rgba(230, 255, 103, 1)"></use><use xlink:href="#SvgjsPath2168" x="270" y="510" stroke="rgba(255, 201, 103, 1)" stroke-width="3"></use><use xlink:href="#SvgjsPath2167" x="270" y="570" stroke="rgba(255, 201, 103, 1)"></use><use xlink:href="#SvgjsPath2164" x="270" y="630" stroke="rgba(103, 255, 104, 1)"></use><use xlink:href="#SvgjsPath2166" x="270" y="690" stroke="rgba(206, 103, 255, 1)"></use><use xlink:href="#SvgjsPath2163" x="330" y="30" stroke="rgba(206, 103, 255, 1)"></use><use xlink:href="#SvgjsPath2163" x="330" y="90" stroke="rgba(206, 103, 255, 1)"></use><use xlink:href="#SvgjsPath2164" x="330" y="150" stroke="rgba(230, 255, 103, 1)"></use><use xlink:href="#SvgjsPath2165" x="330" y="210" stroke="rgba(230, 255, 103, 1)"></use><use xlink:href="#SvgjsPath2164" x="330" y="270" stroke="rgba(230, 255, 103, 1)"></use><use xlink:href="#SvgjsPath2165" x="330" y="330" stroke="rgba(230, 255, 103, 1)"></use><use xlink:href="#SvgjsPath2168" x="330" y="390" stroke="rgba(255, 103, 103, 1)" stroke-width="3"></use><use xlink:href="#SvgjsPath2163" x="330" y="450" stroke="rgba(255, 201, 103, 1)"></use><use xlink:href="#SvgjsPath2163" x="330" y="510" stroke="rgba(103, 200, 255, 1)"></use><use xlink:href="#SvgjsPath2163" x="330" y="570" stroke="rgba(255, 103, 103, 1)"></use><use xlink:href="#SvgjsPath2165" x="330" y="630" stroke="rgba(230, 255, 103, 1)"></use><use xlink:href="#SvgjsPath2164" x="330" y="690" stroke="rgba(230, 255, 103, 1)"></use><use xlink:href="#SvgjsPath2164" x="390" y="30" stroke="rgba(103, 255, 104, 1)"></use><use xlink:href="#SvgjsPath2163" x="390" y="90" stroke="rgba(206, 103, 255, 1)"></use><use xlink:href="#SvgjsPath2167" x="390" y="150" stroke="rgba(255, 201, 103, 1)"></use><use xlink:href="#SvgjsPath2164" x="390" y="210" stroke="rgba(206, 103, 255, 1)"></use><use xlink:href="#SvgjsPath2167" x="390" y="270" stroke="rgba(103, 200, 255, 1)"></use><use xlink:href="#SvgjsPath2163" x="390" y="330" stroke="rgba(255, 201, 103, 1)"></use><use xlink:href="#SvgjsPath2163" x="390" y="390" stroke="rgba(255, 201, 103, 1)"></use><use xlink:href="#SvgjsPath2164" x="390" y="450" stroke="rgba(103, 255, 104, 1)"></use><use xlink:href="#SvgjsPath2164" x="390" y="510" stroke="rgba(103, 255, 104, 1)"></use><use xlink:href="#SvgjsPath2167" x="390" y="570" stroke="rgba(255, 201, 103, 1)"></use><use xlink:href="#SvgjsPath2163" x="390" y="630" stroke="rgba(206, 103, 255, 1)"></use><use xlink:href="#SvgjsPath2164" x="390" y="690" stroke="rgba(103, 255, 104, 1)"></use><use xlink:href="#SvgjsPath2164" x="450" y="30" stroke="rgba(103, 255, 104, 1)"></use><use xlink:href="#SvgjsPath2168" x="450" y="90" stroke="rgba(255, 103, 103, 1)" stroke-width="3"></use><use xlink:href="#SvgjsPath2164" x="450" y="150" stroke="rgba(255, 201, 103, 1)"></use><use xlink:href="#SvgjsPath2163" x="450" y="210" stroke="rgba(230, 255, 103, 1)"></use><use xlink:href="#SvgjsPath2163" x="450" y="270" stroke="rgba(206, 103, 255, 1)"></use><use xlink:href="#SvgjsPath2167" x="450" y="330" stroke="rgba(103, 255, 104, 1)"></use><use xlink:href="#SvgjsPath2164" x="450" y="390" stroke="rgba(103, 255, 104, 1)"></use><use xlink:href="#SvgjsPath2166" x="450" y="450" stroke="rgba(103, 200, 255, 1)"></use><use xlink:href="#SvgjsPath2164" x="450" y="510" stroke="rgba(103, 255, 104, 1)"></use><use xlink:href="#SvgjsPath2168" x="450" y="570" stroke="rgba(255, 201, 103, 1)" stroke-width="3"></use><use xlink:href="#SvgjsPath2164" x="450" y="630" stroke="rgba(103, 200, 255, 1)"></use><use xlink:href="#SvgjsPath2165" x="450" y="690" stroke="rgba(103, 200, 255, 1)"></use><use xlink:href="#SvgjsPath2163" x="510" y="30" stroke="rgba(206, 103, 255, 1)"></use><use xlink:href="#SvgjsPath2163" x="510" y="90" stroke="rgba(255, 201, 103, 1)"></use><use xlink:href="#SvgjsPath2168" x="510" y="150" stroke="rgba(255, 103, 103, 1)" stroke-width="3"></use><use xlink:href="#SvgjsPath2163" x="510" y="210" stroke="rgba(206, 103, 255, 1)"></use><use xlink:href="#SvgjsPath2165" x="510" y="270" stroke="rgba(255, 201, 103, 1)"></use><use xlink:href="#SvgjsPath2163" x="510" y="330" stroke="rgba(255, 201, 103, 1)"></use><use xlink:href="#SvgjsPath2164" x="510" y="390" stroke="rgba(103, 200, 255, 1)"></use><use xlink:href="#SvgjsPath2167" x="510" y="450" stroke="rgba(206, 103, 255, 1)"></use><use xlink:href="#SvgjsPath2164" x="510" y="510" stroke="rgba(103, 200, 255, 1)"></use><use xlink:href="#SvgjsPath2167" x="510" y="570" stroke="rgba(230, 255, 103, 1)"></use><use xlink:href="#SvgjsPath2163" x="510" y="630" stroke="rgba(206, 103, 255, 1)"></use><use xlink:href="#SvgjsPath2164" x="510" y="690" stroke="rgba(206, 103, 255, 1)"></use><use xlink:href="#SvgjsPath2164" x="570" y="30" stroke="rgba(255, 201, 103, 1)"></use><use xlink:href="#SvgjsPath2163" x="570" y="90" stroke="rgba(103, 255, 104, 1)"></use><use xlink:href="#SvgjsPath2163" x="570" y="150" stroke="rgba(255, 103, 103, 1)"></use><use xlink:href="#SvgjsPath2167" x="570" y="210" stroke="rgba(255, 201, 103, 1)"></use><use xlink:href="#SvgjsPath2164" x="570" y="270" stroke="rgba(230, 255, 103, 1)"></use><use xlink:href="#SvgjsPath2164" x="570" y="330" stroke="rgba(255, 103, 103, 1)"></use><use xlink:href="#SvgjsPath2167" x="570" y="390" stroke="rgba(230, 255, 103, 1)"></use><use xlink:href="#SvgjsPath2164" x="570" y="450" stroke="rgba(255, 103, 103, 1)"></use><use xlink:href="#SvgjsPath2163" x="570" y="510" stroke="rgba(255, 103, 103, 1)"></use><use xlink:href="#SvgjsPath2165" x="570" y="570" stroke="rgba(230, 255, 103, 1)"></use><use xlink:href="#SvgjsPath2163" x="570" y="630" stroke="rgba(255, 201, 103, 1)"></use><use xlink:href="#SvgjsPath2168" x="570" y="690" stroke="rgba(103, 200, 255, 1)" stroke-width="3"></use><use xlink:href="#SvgjsPath2167" x="630" y="30" stroke="rgba(230, 255, 103, 1)"></use><use xlink:href="#SvgjsPath2163" x="630" y="90" stroke="rgba(255, 201, 103, 1)"></use><use xlink:href="#SvgjsPath2163" x="630" y="150" stroke="rgba(230, 255, 103, 1)"></use><use xlink:href="#SvgjsPath2163" x="630" y="210" stroke="rgba(230, 255, 103, 1)"></use><use xlink:href="#SvgjsPath2164" x="630" y="270" stroke="rgba(103, 255, 104, 1)"></use><use xlink:href="#SvgjsPath2163" x="630" y="330" stroke="rgba(255, 201, 103, 1)"></use><use xlink:href="#SvgjsPath2166" x="630" y="390" stroke="rgba(255, 201, 103, 1)"></use><use xlink:href="#SvgjsPath2164" x="630" y="450" stroke="rgba(103, 255, 104, 1)"></use><use xlink:href="#SvgjsPath2166" x="630" y="510" stroke="rgba(103, 255, 104, 1)"></use><use xlink:href="#SvgjsPath2164" x="630" y="570" stroke="rgba(103, 255, 104, 1)"></use><use xlink:href="#SvgjsPath2167" x="630" y="630" stroke="rgba(255, 201, 103, 1)"></use><use xlink:href="#SvgjsPath2166" x="630" y="690" stroke="rgba(255, 103, 103, 1)"></use><use xlink:href="#SvgjsPath2168" x="690" y="30" stroke="rgba(230, 255, 103, 1)" stroke-width="3"></use><use xlink:href="#SvgjsPath2166" x="690" y="90" stroke="rgba(255, 103, 103, 1)"></use><use xlink:href="#SvgjsPath2168" x="690" y="150" stroke="rgba(255, 103, 103, 1)" stroke-width="3"></use><use xlink:href="#SvgjsPath2164" x="690" y="210" stroke="rgba(103, 255, 104, 1)"></use><use xlink:href="#SvgjsPath2163" x="690" y="270" stroke="rgba(230, 255, 103, 1)"></use><use xlink:href="#SvgjsPath2164" x="690" y="330" stroke="rgba(255, 201, 103, 1)"></use><use xlink:href="#SvgjsPath2164" x="690" y="390" stroke="rgba(206, 103, 255, 1)"></use><use xlink:href="#SvgjsPath2164" x="690" y="450" stroke="rgba(206, 103, 255, 1)"></use><use xlink:href="#SvgjsPath2164" x="690" y="510" stroke="rgba(103, 255, 104, 1)"></use><use xlink:href="#SvgjsPath2164" x="690" y="570" stroke="rgba(230, 255, 103, 1)"></use><use xlink:href="#SvgjsPath2163" x="690" y="630" stroke="rgba(206, 103, 255, 1)"></use><use xlink:href="#SvgjsPath2164" x="690" y="690" stroke="rgba(103, 200, 255, 1)"></use></symbol></svg>
