<svg xmlns="http://www.w3.org/2000/svg" version="1.1" xmlns:xlink="http://www.w3.org/1999/xlink" xmlns:svgjs="http://svgjs.dev/svgjs" width="5120" height="1440" preserveAspectRatio="none" viewBox="0 0 5120 1440"><g mask="url(&quot;#SvgjsMask4276&quot;)" fill="none"><rect width="5120" height="1440" x="0" y="0" fill="url(&quot;#SvgjsLinearGradient4277&quot;)"></rect><use xlink:href="#SvgjsSymbol4284" x="0" y="0"></use><use xlink:href="#SvgjsSymbol4284" x="0" y="720"></use><use xlink:href="#SvgjsSymbol4284" x="720" y="0"></use><use xlink:href="#SvgjsSymbol4284" x="720" y="720"></use><use xlink:href="#SvgjsSymbol4284" x="1440" y="0"></use><use xlink:href="#SvgjsSymbol4284" x="1440" y="720"></use><use xlink:href="#SvgjsSymbol4284" x="2160" y="0"></use><use xlink:href="#SvgjsSymbol4284" x="2160" y="720"></use><use xlink:href="#SvgjsSymbol4284" x="2880" y="0"></use><use xlink:href="#SvgjsSymbol4284" x="2880" y="720"></use><use xlink:href="#SvgjsSymbol4284" x="3600" y="0"></use><use xlink:href="#SvgjsSymbol4284" x="3600" y="720"></use><use xlink:href="#SvgjsSymbol4284" x="4320" y="0"></use><use xlink:href="#SvgjsSymbol4284" x="4320" y="720"></use><use xlink:href="#SvgjsSymbol4284" x="5040" y="0"></use><use xlink:href="#SvgjsSymbol4284" x="5040" y="720"></use></g><defs><mask id="SvgjsMask4276"><rect width="5120" height="1440" fill="#ffffff"></rect></mask><linearGradient x1="17.97%" y1="-63.89%" x2="82.03%" y2="163.89%" gradientUnits="userSpaceOnUse" id="SvgjsLinearGradient4277"><stop stop-color="rgba(241, 241, 241, 1)" offset="0.02"></stop><stop stop-color="rgba(255, 255, 255, 1)" offset="1"></stop></linearGradient><path d="M-1 0 a1 1 0 1 0 2 0 a1 1 0 1 0 -2 0z" id="SvgjsPath4281"></path><path d="M-3 0 a3 3 0 1 0 6 0 a3 3 0 1 0 -6 0z" id="SvgjsPath4280"></path><path d="M-5 0 a5 5 0 1 0 10 0 a5 5 0 1 0 -10 0z" id="SvgjsPath4278"></path><path d="M2 -2 L-2 2z" id="SvgjsPath4282"></path><path d="M6 -6 L-6 6z" id="SvgjsPath4279"></path><path d="M30 -30 L-30 30z" id="SvgjsPath4283"></path></defs><symbol id="SvgjsSymbol4284"><use xlink:href="#SvgjsPath4278" x="30" y="30" stroke="rgba(255, 201, 103, 1)"></use><use xlink:href="#SvgjsPath4279" x="30" y="90" stroke="rgba(103, 200, 255, 1)"></use><use xlink:href="#SvgjsPath4278" x="30" y="150" stroke="rgba(103, 200, 255, 1)"></use><use xlink:href="#SvgjsPath4278" x="30" y="210" stroke="rgba(206, 103, 255, 1)"></use><use xlink:href="#SvgjsPath4280" x="30" y="270" stroke="rgba(206, 103, 255, 1)"></use><use xlink:href="#SvgjsPath4278" x="30" y="330" stroke="rgba(103, 200, 255, 1)"></use><use xlink:href="#SvgjsPath4279" x="30" y="390" stroke="rgba(255, 103, 103, 1)"></use><use xlink:href="#SvgjsPath4279" x="30" y="450" stroke="rgba(255, 201, 103, 1)"></use><use xlink:href="#SvgjsPath4278" x="30" y="510" stroke="rgba(255, 201, 103, 1)"></use><use xlink:href="#SvgjsPath4279" x="30" y="570" stroke="rgba(206, 103, 255, 1)"></use><use xlink:href="#SvgjsPath4279" x="30" y="630" stroke="rgba(103, 255, 104, 1)"></use><use xlink:href="#SvgjsPath4281" x="30" y="690" stroke="rgba(103, 200, 255, 1)"></use><use xlink:href="#SvgjsPath4278" x="90" y="30" stroke="rgba(103, 200, 255, 1)"></use><use xlink:href="#SvgjsPath4278" x="90" y="90" stroke="rgba(255, 201, 103, 1)"></use><use xlink:href="#SvgjsPath4278" x="90" y="150" stroke="rgba(255, 103, 103, 1)"></use><use xlink:href="#SvgjsPath4278" x="90" y="210" stroke="rgba(255, 103, 103, 1)"></use><use xlink:href="#SvgjsPath4282" x="90" y="270" stroke="rgba(103, 200, 255, 1)"></use><use xlink:href="#SvgjsPath4281" x="90" y="330" stroke="rgba(206, 103, 255, 1)"></use><use xlink:href="#SvgjsPath4282" x="90" y="390" stroke="rgba(206, 103, 255, 1)"></use><use xlink:href="#SvgjsPath4281" x="90" y="450" stroke="rgba(255, 201, 103, 1)"></use><use xlink:href="#SvgjsPath4281" x="90" y="510" stroke="rgba(230, 255, 103, 1)"></use><use xlink:href="#SvgjsPath4280" x="90" y="570" stroke="rgba(255, 201, 103, 1)"></use><use xlink:href="#SvgjsPath4278" x="90" y="630" stroke="rgba(103, 200, 255, 1)"></use><use xlink:href="#SvgjsPath4278" x="90" y="690" stroke="rgba(206, 103, 255, 1)"></use><use xlink:href="#SvgjsPath4278" x="150" y="30" stroke="rgba(103, 255, 104, 1)"></use><use xlink:href="#SvgjsPath4278" x="150" y="90" stroke="rgba(255, 103, 103, 1)"></use><use xlink:href="#SvgjsPath4280" x="150" y="150" stroke="rgba(206, 103, 255, 1)"></use><use xlink:href="#SvgjsPath4279" x="150" y="210" stroke="rgba(255, 103, 103, 1)"></use><use xlink:href="#SvgjsPath4279" x="150" y="270" stroke="rgba(103, 255, 104, 1)"></use><use xlink:href="#SvgjsPath4278" x="150" y="330" stroke="rgba(103, 255, 104, 1)"></use><use xlink:href="#SvgjsPath4282" x="150" y="390" stroke="rgba(255, 103, 103, 1)"></use><use xlink:href="#SvgjsPath4283" x="150" y="450" stroke="rgba(255, 103, 103, 1)" stroke-width="3"></use><use xlink:href="#SvgjsPath4279" x="150" y="510" stroke="rgba(103, 200, 255, 1)"></use><use xlink:href="#SvgjsPath4279" x="150" y="570" stroke="rgba(230, 255, 103, 1)"></use><use xlink:href="#SvgjsPath4279" x="150" y="630" stroke="rgba(230, 255, 103, 1)"></use><use xlink:href="#SvgjsPath4278" x="150" y="690" stroke="rgba(255, 103, 103, 1)"></use><use xlink:href="#SvgjsPath4278" x="210" y="30" stroke="rgba(206, 103, 255, 1)"></use><use xlink:href="#SvgjsPath4279" x="210" y="90" stroke="rgba(230, 255, 103, 1)"></use><use xlink:href="#SvgjsPath4280" x="210" y="150" stroke="rgba(103, 255, 104, 1)"></use><use xlink:href="#SvgjsPath4278" x="210" y="210" stroke="rgba(230, 255, 103, 1)"></use><use xlink:href="#SvgjsPath4278" x="210" y="270" stroke="rgba(255, 103, 103, 1)"></use><use xlink:href="#SvgjsPath4278" x="210" y="330" stroke="rgba(255, 103, 103, 1)"></use><use xlink:href="#SvgjsPath4283" x="210" y="390" stroke="rgba(206, 103, 255, 1)" stroke-width="3"></use><use xlink:href="#SvgjsPath4278" x="210" y="450" stroke="rgba(206, 103, 255, 1)"></use><use xlink:href="#SvgjsPath4279" x="210" y="510" stroke="rgba(206, 103, 255, 1)"></use><use xlink:href="#SvgjsPath4278" x="210" y="570" stroke="rgba(230, 255, 103, 1)"></use><use xlink:href="#SvgjsPath4278" x="210" y="630" stroke="rgba(103, 255, 104, 1)"></use><use xlink:href="#SvgjsPath4278" x="210" y="690" stroke="rgba(103, 200, 255, 1)"></use><use xlink:href="#SvgjsPath4281" x="270" y="30" stroke="rgba(230, 255, 103, 1)"></use><use xlink:href="#SvgjsPath4282" x="270" y="90" stroke="rgba(103, 255, 104, 1)"></use><use xlink:href="#SvgjsPath4278" x="270" y="150" stroke="rgba(103, 200, 255, 1)"></use><use xlink:href="#SvgjsPath4278" x="270" y="210" stroke="rgba(255, 103, 103, 1)"></use><use xlink:href="#SvgjsPath4279" x="270" y="270" stroke="rgba(206, 103, 255, 1)"></use><use xlink:href="#SvgjsPath4278" x="270" y="330" stroke="rgba(103, 200, 255, 1)"></use><use xlink:href="#SvgjsPath4279" x="270" y="390" stroke="rgba(206, 103, 255, 1)"></use><use xlink:href="#SvgjsPath4278" x="270" y="450" stroke="rgba(230, 255, 103, 1)"></use><use xlink:href="#SvgjsPath4283" x="270" y="510" stroke="rgba(255, 201, 103, 1)" stroke-width="3"></use><use xlink:href="#SvgjsPath4282" x="270" y="570" stroke="rgba(255, 201, 103, 1)"></use><use xlink:href="#SvgjsPath4279" x="270" y="630" stroke="rgba(103, 255, 104, 1)"></use><use xlink:href="#SvgjsPath4281" x="270" y="690" stroke="rgba(206, 103, 255, 1)"></use><use xlink:href="#SvgjsPath4278" x="330" y="30" stroke="rgba(206, 103, 255, 1)"></use><use xlink:href="#SvgjsPath4278" x="330" y="90" stroke="rgba(206, 103, 255, 1)"></use><use xlink:href="#SvgjsPath4279" x="330" y="150" stroke="rgba(230, 255, 103, 1)"></use><use xlink:href="#SvgjsPath4280" x="330" y="210" stroke="rgba(230, 255, 103, 1)"></use><use xlink:href="#SvgjsPath4279" x="330" y="270" stroke="rgba(230, 255, 103, 1)"></use><use xlink:href="#SvgjsPath4280" x="330" y="330" stroke="rgba(230, 255, 103, 1)"></use><use xlink:href="#SvgjsPath4283" x="330" y="390" stroke="rgba(255, 103, 103, 1)" stroke-width="3"></use><use xlink:href="#SvgjsPath4278" x="330" y="450" stroke="rgba(255, 201, 103, 1)"></use><use xlink:href="#SvgjsPath4278" x="330" y="510" stroke="rgba(103, 200, 255, 1)"></use><use xlink:href="#SvgjsPath4278" x="330" y="570" stroke="rgba(255, 103, 103, 1)"></use><use xlink:href="#SvgjsPath4280" x="330" y="630" stroke="rgba(230, 255, 103, 1)"></use><use xlink:href="#SvgjsPath4279" x="330" y="690" stroke="rgba(230, 255, 103, 1)"></use><use xlink:href="#SvgjsPath4279" x="390" y="30" stroke="rgba(103, 255, 104, 1)"></use><use xlink:href="#SvgjsPath4278" x="390" y="90" stroke="rgba(206, 103, 255, 1)"></use><use xlink:href="#SvgjsPath4282" x="390" y="150" stroke="rgba(255, 201, 103, 1)"></use><use xlink:href="#SvgjsPath4279" x="390" y="210" stroke="rgba(206, 103, 255, 1)"></use><use xlink:href="#SvgjsPath4282" x="390" y="270" stroke="rgba(103, 200, 255, 1)"></use><use xlink:href="#SvgjsPath4278" x="390" y="330" stroke="rgba(255, 201, 103, 1)"></use><use xlink:href="#SvgjsPath4278" x="390" y="390" stroke="rgba(255, 201, 103, 1)"></use><use xlink:href="#SvgjsPath4279" x="390" y="450" stroke="rgba(103, 255, 104, 1)"></use><use xlink:href="#SvgjsPath4279" x="390" y="510" stroke="rgba(103, 255, 104, 1)"></use><use xlink:href="#SvgjsPath4282" x="390" y="570" stroke="rgba(255, 201, 103, 1)"></use><use xlink:href="#SvgjsPath4278" x="390" y="630" stroke="rgba(206, 103, 255, 1)"></use><use xlink:href="#SvgjsPath4279" x="390" y="690" stroke="rgba(103, 255, 104, 1)"></use><use xlink:href="#SvgjsPath4279" x="450" y="30" stroke="rgba(103, 255, 104, 1)"></use><use xlink:href="#SvgjsPath4283" x="450" y="90" stroke="rgba(255, 103, 103, 1)" stroke-width="3"></use><use xlink:href="#SvgjsPath4279" x="450" y="150" stroke="rgba(255, 201, 103, 1)"></use><use xlink:href="#SvgjsPath4278" x="450" y="210" stroke="rgba(230, 255, 103, 1)"></use><use xlink:href="#SvgjsPath4278" x="450" y="270" stroke="rgba(206, 103, 255, 1)"></use><use xlink:href="#SvgjsPath4282" x="450" y="330" stroke="rgba(103, 255, 104, 1)"></use><use xlink:href="#SvgjsPath4279" x="450" y="390" stroke="rgba(103, 255, 104, 1)"></use><use xlink:href="#SvgjsPath4281" x="450" y="450" stroke="rgba(103, 200, 255, 1)"></use><use xlink:href="#SvgjsPath4279" x="450" y="510" stroke="rgba(103, 255, 104, 1)"></use><use xlink:href="#SvgjsPath4283" x="450" y="570" stroke="rgba(255, 201, 103, 1)" stroke-width="3"></use><use xlink:href="#SvgjsPath4279" x="450" y="630" stroke="rgba(103, 200, 255, 1)"></use><use xlink:href="#SvgjsPath4280" x="450" y="690" stroke="rgba(103, 200, 255, 1)"></use><use xlink:href="#SvgjsPath4278" x="510" y="30" stroke="rgba(206, 103, 255, 1)"></use><use xlink:href="#SvgjsPath4278" x="510" y="90" stroke="rgba(255, 201, 103, 1)"></use><use xlink:href="#SvgjsPath4283" x="510" y="150" stroke="rgba(255, 103, 103, 1)" stroke-width="3"></use><use xlink:href="#SvgjsPath4278" x="510" y="210" stroke="rgba(206, 103, 255, 1)"></use><use xlink:href="#SvgjsPath4280" x="510" y="270" stroke="rgba(255, 201, 103, 1)"></use><use xlink:href="#SvgjsPath4278" x="510" y="330" stroke="rgba(255, 201, 103, 1)"></use><use xlink:href="#SvgjsPath4279" x="510" y="390" stroke="rgba(103, 200, 255, 1)"></use><use xlink:href="#SvgjsPath4282" x="510" y="450" stroke="rgba(206, 103, 255, 1)"></use><use xlink:href="#SvgjsPath4279" x="510" y="510" stroke="rgba(103, 200, 255, 1)"></use><use xlink:href="#SvgjsPath4282" x="510" y="570" stroke="rgba(230, 255, 103, 1)"></use><use xlink:href="#SvgjsPath4278" x="510" y="630" stroke="rgba(206, 103, 255, 1)"></use><use xlink:href="#SvgjsPath4279" x="510" y="690" stroke="rgba(206, 103, 255, 1)"></use><use xlink:href="#SvgjsPath4279" x="570" y="30" stroke="rgba(255, 201, 103, 1)"></use><use xlink:href="#SvgjsPath4278" x="570" y="90" stroke="rgba(103, 255, 104, 1)"></use><use xlink:href="#SvgjsPath4278" x="570" y="150" stroke="rgba(255, 103, 103, 1)"></use><use xlink:href="#SvgjsPath4282" x="570" y="210" stroke="rgba(255, 201, 103, 1)"></use><use xlink:href="#SvgjsPath4279" x="570" y="270" stroke="rgba(230, 255, 103, 1)"></use><use xlink:href="#SvgjsPath4279" x="570" y="330" stroke="rgba(255, 103, 103, 1)"></use><use xlink:href="#SvgjsPath4282" x="570" y="390" stroke="rgba(230, 255, 103, 1)"></use><use xlink:href="#SvgjsPath4279" x="570" y="450" stroke="rgba(255, 103, 103, 1)"></use><use xlink:href="#SvgjsPath4278" x="570" y="510" stroke="rgba(255, 103, 103, 1)"></use><use xlink:href="#SvgjsPath4280" x="570" y="570" stroke="rgba(230, 255, 103, 1)"></use><use xlink:href="#SvgjsPath4278" x="570" y="630" stroke="rgba(255, 201, 103, 1)"></use><use xlink:href="#SvgjsPath4283" x="570" y="690" stroke="rgba(103, 200, 255, 1)" stroke-width="3"></use><use xlink:href="#SvgjsPath4282" x="630" y="30" stroke="rgba(230, 255, 103, 1)"></use><use xlink:href="#SvgjsPath4278" x="630" y="90" stroke="rgba(255, 201, 103, 1)"></use><use xlink:href="#SvgjsPath4278" x="630" y="150" stroke="rgba(230, 255, 103, 1)"></use><use xlink:href="#SvgjsPath4278" x="630" y="210" stroke="rgba(230, 255, 103, 1)"></use><use xlink:href="#SvgjsPath4279" x="630" y="270" stroke="rgba(103, 255, 104, 1)"></use><use xlink:href="#SvgjsPath4278" x="630" y="330" stroke="rgba(255, 201, 103, 1)"></use><use xlink:href="#SvgjsPath4281" x="630" y="390" stroke="rgba(255, 201, 103, 1)"></use><use xlink:href="#SvgjsPath4279" x="630" y="450" stroke="rgba(103, 255, 104, 1)"></use><use xlink:href="#SvgjsPath4281" x="630" y="510" stroke="rgba(103, 255, 104, 1)"></use><use xlink:href="#SvgjsPath4279" x="630" y="570" stroke="rgba(103, 255, 104, 1)"></use><use xlink:href="#SvgjsPath4282" x="630" y="630" stroke="rgba(255, 201, 103, 1)"></use><use xlink:href="#SvgjsPath4281" x="630" y="690" stroke="rgba(255, 103, 103, 1)"></use><use xlink:href="#SvgjsPath4283" x="690" y="30" stroke="rgba(230, 255, 103, 1)" stroke-width="3"></use><use xlink:href="#SvgjsPath4281" x="690" y="90" stroke="rgba(255, 103, 103, 1)"></use><use xlink:href="#SvgjsPath4283" x="690" y="150" stroke="rgba(255, 103, 103, 1)" stroke-width="3"></use><use xlink:href="#SvgjsPath4279" x="690" y="210" stroke="rgba(103, 255, 104, 1)"></use><use xlink:href="#SvgjsPath4278" x="690" y="270" stroke="rgba(230, 255, 103, 1)"></use><use xlink:href="#SvgjsPath4279" x="690" y="330" stroke="rgba(255, 201, 103, 1)"></use><use xlink:href="#SvgjsPath4279" x="690" y="390" stroke="rgba(206, 103, 255, 1)"></use><use xlink:href="#SvgjsPath4279" x="690" y="450" stroke="rgba(206, 103, 255, 1)"></use><use xlink:href="#SvgjsPath4279" x="690" y="510" stroke="rgba(103, 255, 104, 1)"></use><use xlink:href="#SvgjsPath4279" x="690" y="570" stroke="rgba(230, 255, 103, 1)"></use><use xlink:href="#SvgjsPath4278" x="690" y="630" stroke="rgba(206, 103, 255, 1)"></use><use xlink:href="#SvgjsPath4279" x="690" y="690" stroke="rgba(103, 200, 255, 1)"></use></symbol></svg>
