<svg xmlns="http://www.w3.org/2000/svg" version="1.1" xmlns:xlink="http://www.w3.org/1999/xlink" xmlns:svgjs="http://svgjs.dev/svgjs" width="5120" height="1440" preserveAspectRatio="none" viewBox="0 0 5120 1440"><g mask="url(&quot;#SvgjsMask1630&quot;)" fill="none"><rect width="5120" height="1440" x="0" y="0" fill="url(&quot;#SvgjsLinearGradient1631&quot;)"></rect><use xlink:href="#SvgjsSymbol1638" x="0" y="0"></use><use xlink:href="#SvgjsSymbol1638" x="0" y="720"></use><use xlink:href="#SvgjsSymbol1638" x="720" y="0"></use><use xlink:href="#SvgjsSymbol1638" x="720" y="720"></use><use xlink:href="#SvgjsSymbol1638" x="1440" y="0"></use><use xlink:href="#SvgjsSymbol1638" x="1440" y="720"></use><use xlink:href="#SvgjsSymbol1638" x="2160" y="0"></use><use xlink:href="#SvgjsSymbol1638" x="2160" y="720"></use><use xlink:href="#SvgjsSymbol1638" x="2880" y="0"></use><use xlink:href="#SvgjsSymbol1638" x="2880" y="720"></use><use xlink:href="#SvgjsSymbol1638" x="3600" y="0"></use><use xlink:href="#SvgjsSymbol1638" x="3600" y="720"></use><use xlink:href="#SvgjsSymbol1638" x="4320" y="0"></use><use xlink:href="#SvgjsSymbol1638" x="4320" y="720"></use><use xlink:href="#SvgjsSymbol1638" x="5040" y="0"></use><use xlink:href="#SvgjsSymbol1638" x="5040" y="720"></use></g><defs><mask id="SvgjsMask1630"><rect width="5120" height="1440" fill="#ffffff"></rect></mask><linearGradient x1="17.97%" y1="-63.89%" x2="82.03%" y2="163.89%" gradientUnits="userSpaceOnUse" id="SvgjsLinearGradient1631"><stop stop-color="rgba(10, 56, 5, 1)" offset="0.02"></stop><stop stop-color="rgba(11, 80, 25, 1)" offset="1"></stop></linearGradient><path d="M-1 0 a1 1 0 1 0 2 0 a1 1 0 1 0 -2 0z" id="SvgjsPath1635"></path><path d="M-3 0 a3 3 0 1 0 6 0 a3 3 0 1 0 -6 0z" id="SvgjsPath1636"></path><path d="M-5 0 a5 5 0 1 0 10 0 a5 5 0 1 0 -10 0z" id="SvgjsPath1634"></path><path d="M2 -2 L-2 2z" id="SvgjsPath1633"></path><path d="M6 -6 L-6 6z" id="SvgjsPath1632"></path><path d="M30 -30 L-30 30z" id="SvgjsPath1637"></path></defs><symbol id="SvgjsSymbol1638"><use xlink:href="#SvgjsPath1632" x="30" y="30" stroke="rgba(103, 255, 104, 1)"></use><use xlink:href="#SvgjsPath1633" x="30" y="90" stroke="rgba(55, 255, 46, 1)"></use><use xlink:href="#SvgjsPath1634" x="30" y="150" stroke="rgba(103, 255, 104, 1)"></use><use xlink:href="#SvgjsPath1635" x="30" y="210" stroke="rgba(103, 255, 104, 1)"></use><use xlink:href="#SvgjsPath1634" x="30" y="270" stroke="rgba(103, 255, 104, 1)"></use><use xlink:href="#SvgjsPath1633" x="30" y="330" stroke="rgba(48, 245, 29, 1)"></use><use xlink:href="#SvgjsPath1634" x="30" y="390" stroke="rgba(103, 255, 104, 1)"></use><use xlink:href="#SvgjsPath1633" x="30" y="450" stroke="rgba(48, 245, 29, 1)"></use><use xlink:href="#SvgjsPath1632" x="30" y="510" stroke="rgba(48, 245, 29, 1)"></use><use xlink:href="#SvgjsPath1634" x="30" y="570" stroke="rgba(55, 255, 46, 1)"></use><use xlink:href="#SvgjsPath1635" x="30" y="630" stroke="rgba(103, 255, 104, 1)"></use><use xlink:href="#SvgjsPath1632" x="30" y="690" stroke="rgba(48, 245, 29, 1)"></use><use xlink:href="#SvgjsPath1632" x="90" y="30" stroke="rgba(55, 255, 46, 1)"></use><use xlink:href="#SvgjsPath1635" x="90" y="90" stroke="rgba(55, 255, 46, 1)"></use><use xlink:href="#SvgjsPath1632" x="90" y="150" stroke="rgba(103, 255, 104, 1)"></use><use xlink:href="#SvgjsPath1632" x="90" y="210" stroke="rgba(55, 255, 46, 1)"></use><use xlink:href="#SvgjsPath1632" x="90" y="270" stroke="rgba(103, 255, 104, 1)"></use><use xlink:href="#SvgjsPath1634" x="90" y="330" stroke="rgba(48, 245, 29, 1)"></use><use xlink:href="#SvgjsPath1634" x="90" y="390" stroke="rgba(103, 255, 104, 1)"></use><use xlink:href="#SvgjsPath1632" x="90" y="450" stroke="rgba(48, 245, 29, 1)"></use><use xlink:href="#SvgjsPath1634" x="90" y="510" stroke="rgba(103, 255, 104, 1)"></use><use xlink:href="#SvgjsPath1634" x="90" y="570" stroke="rgba(103, 255, 104, 1)"></use><use xlink:href="#SvgjsPath1634" x="90" y="630" stroke="rgba(103, 255, 104, 1)"></use><use xlink:href="#SvgjsPath1632" x="90" y="690" stroke="rgba(55, 255, 46, 1)"></use><use xlink:href="#SvgjsPath1636" x="150" y="30" stroke="rgba(103, 255, 104, 1)"></use><use xlink:href="#SvgjsPath1636" x="150" y="90" stroke="rgba(48, 245, 29, 1)"></use><use xlink:href="#SvgjsPath1635" x="150" y="150" stroke="rgba(48, 245, 29, 1)"></use><use xlink:href="#SvgjsPath1637" x="150" y="210" stroke="rgba(55, 255, 46, 1)" stroke-width="3"></use><use xlink:href="#SvgjsPath1632" x="150" y="270" stroke="rgba(48, 245, 29, 1)"></use><use xlink:href="#SvgjsPath1634" x="150" y="330" stroke="rgba(103, 255, 104, 1)"></use><use xlink:href="#SvgjsPath1633" x="150" y="390" stroke="rgba(103, 255, 104, 1)"></use><use xlink:href="#SvgjsPath1634" x="150" y="450" stroke="rgba(55, 255, 46, 1)"></use><use xlink:href="#SvgjsPath1632" x="150" y="510" stroke="rgba(48, 245, 29, 1)"></use><use xlink:href="#SvgjsPath1636" x="150" y="570" stroke="rgba(103, 255, 104, 1)"></use><use xlink:href="#SvgjsPath1633" x="150" y="630" stroke="rgba(48, 245, 29, 1)"></use><use xlink:href="#SvgjsPath1632" x="150" y="690" stroke="rgba(48, 245, 29, 1)"></use><use xlink:href="#SvgjsPath1634" x="210" y="30" stroke="rgba(103, 255, 104, 1)"></use><use xlink:href="#SvgjsPath1634" x="210" y="90" stroke="rgba(103, 255, 104, 1)"></use><use xlink:href="#SvgjsPath1633" x="210" y="150" stroke="rgba(103, 255, 104, 1)"></use><use xlink:href="#SvgjsPath1632" x="210" y="210" stroke="rgba(55, 255, 46, 1)"></use><use xlink:href="#SvgjsPath1633" x="210" y="270" stroke="rgba(55, 255, 46, 1)"></use><use xlink:href="#SvgjsPath1636" x="210" y="330" stroke="rgba(48, 245, 29, 1)"></use><use xlink:href="#SvgjsPath1635" x="210" y="390" stroke="rgba(103, 255, 104, 1)"></use><use xlink:href="#SvgjsPath1634" x="210" y="450" stroke="rgba(48, 245, 29, 1)"></use><use xlink:href="#SvgjsPath1635" x="210" y="510" stroke="rgba(103, 255, 104, 1)"></use><use xlink:href="#SvgjsPath1632" x="210" y="570" stroke="rgba(48, 245, 29, 1)"></use><use xlink:href="#SvgjsPath1634" x="210" y="630" stroke="rgba(55, 255, 46, 1)"></use><use xlink:href="#SvgjsPath1633" x="210" y="690" stroke="rgba(103, 255, 104, 1)"></use><use xlink:href="#SvgjsPath1637" x="270" y="30" stroke="rgba(55, 255, 46, 1)" stroke-width="3"></use><use xlink:href="#SvgjsPath1634" x="270" y="90" stroke="rgba(103, 255, 104, 1)"></use><use xlink:href="#SvgjsPath1633" x="270" y="150" stroke="rgba(55, 255, 46, 1)"></use><use xlink:href="#SvgjsPath1634" x="270" y="210" stroke="rgba(103, 255, 104, 1)"></use><use xlink:href="#SvgjsPath1633" x="270" y="270" stroke="rgba(55, 255, 46, 1)"></use><use xlink:href="#SvgjsPath1635" x="270" y="330" stroke="rgba(48, 245, 29, 1)"></use><use xlink:href="#SvgjsPath1637" x="270" y="390" stroke="rgba(48, 245, 29, 1)" stroke-width="3"></use><use xlink:href="#SvgjsPath1635" x="270" y="450" stroke="rgba(55, 255, 46, 1)"></use><use xlink:href="#SvgjsPath1634" x="270" y="510" stroke="rgba(48, 245, 29, 1)"></use><use xlink:href="#SvgjsPath1632" x="270" y="570" stroke="rgba(55, 255, 46, 1)"></use><use xlink:href="#SvgjsPath1634" x="270" y="630" stroke="rgba(48, 245, 29, 1)"></use><use xlink:href="#SvgjsPath1632" x="270" y="690" stroke="rgba(48, 245, 29, 1)"></use><use xlink:href="#SvgjsPath1632" x="330" y="30" stroke="rgba(55, 255, 46, 1)"></use><use xlink:href="#SvgjsPath1632" x="330" y="90" stroke="rgba(48, 245, 29, 1)"></use><use xlink:href="#SvgjsPath1632" x="330" y="150" stroke="rgba(55, 255, 46, 1)"></use><use xlink:href="#SvgjsPath1634" x="330" y="210" stroke="rgba(103, 255, 104, 1)"></use><use xlink:href="#SvgjsPath1633" x="330" y="270" stroke="rgba(103, 255, 104, 1)"></use><use xlink:href="#SvgjsPath1632" x="330" y="330" stroke="rgba(48, 245, 29, 1)"></use><use xlink:href="#SvgjsPath1635" x="330" y="390" stroke="rgba(103, 255, 104, 1)"></use><use xlink:href="#SvgjsPath1634" x="330" y="450" stroke="rgba(55, 255, 46, 1)"></use><use xlink:href="#SvgjsPath1634" x="330" y="510" stroke="rgba(55, 255, 46, 1)"></use><use xlink:href="#SvgjsPath1635" x="330" y="570" stroke="rgba(48, 245, 29, 1)"></use><use xlink:href="#SvgjsPath1633" x="330" y="630" stroke="rgba(48, 245, 29, 1)"></use><use xlink:href="#SvgjsPath1633" x="330" y="690" stroke="rgba(48, 245, 29, 1)"></use><use xlink:href="#SvgjsPath1632" x="390" y="30" stroke="rgba(103, 255, 104, 1)"></use><use xlink:href="#SvgjsPath1633" x="390" y="90" stroke="rgba(48, 245, 29, 1)"></use><use xlink:href="#SvgjsPath1632" x="390" y="150" stroke="rgba(48, 245, 29, 1)"></use><use xlink:href="#SvgjsPath1635" x="390" y="210" stroke="rgba(103, 255, 104, 1)"></use><use xlink:href="#SvgjsPath1633" x="390" y="270" stroke="rgba(103, 255, 104, 1)"></use><use xlink:href="#SvgjsPath1634" x="390" y="330" stroke="rgba(48, 245, 29, 1)"></use><use xlink:href="#SvgjsPath1632" x="390" y="390" stroke="rgba(55, 255, 46, 1)"></use><use xlink:href="#SvgjsPath1632" x="390" y="450" stroke="rgba(55, 255, 46, 1)"></use><use xlink:href="#SvgjsPath1637" x="390" y="510" stroke="rgba(48, 245, 29, 1)" stroke-width="3"></use><use xlink:href="#SvgjsPath1632" x="390" y="570" stroke="rgba(48, 245, 29, 1)"></use><use xlink:href="#SvgjsPath1632" x="390" y="630" stroke="rgba(48, 245, 29, 1)"></use><use xlink:href="#SvgjsPath1635" x="390" y="690" stroke="rgba(48, 245, 29, 1)"></use><use xlink:href="#SvgjsPath1634" x="450" y="30" stroke="rgba(103, 255, 104, 1)"></use><use xlink:href="#SvgjsPath1634" x="450" y="90" stroke="rgba(55, 255, 46, 1)"></use><use xlink:href="#SvgjsPath1634" x="450" y="150" stroke="rgba(55, 255, 46, 1)"></use><use xlink:href="#SvgjsPath1636" x="450" y="210" stroke="rgba(48, 245, 29, 1)"></use><use xlink:href="#SvgjsPath1635" x="450" y="270" stroke="rgba(103, 255, 104, 1)"></use><use xlink:href="#SvgjsPath1632" x="450" y="330" stroke="rgba(103, 255, 104, 1)"></use><use xlink:href="#SvgjsPath1633" x="450" y="390" stroke="rgba(103, 255, 104, 1)"></use><use xlink:href="#SvgjsPath1635" x="450" y="450" stroke="rgba(48, 245, 29, 1)"></use><use xlink:href="#SvgjsPath1632" x="450" y="510" stroke="rgba(103, 255, 104, 1)"></use><use xlink:href="#SvgjsPath1632" x="450" y="570" stroke="rgba(55, 255, 46, 1)"></use><use xlink:href="#SvgjsPath1634" x="450" y="630" stroke="rgba(55, 255, 46, 1)"></use><use xlink:href="#SvgjsPath1634" x="450" y="690" stroke="rgba(55, 255, 46, 1)"></use><use xlink:href="#SvgjsPath1633" x="510" y="30" stroke="rgba(48, 245, 29, 1)"></use><use xlink:href="#SvgjsPath1634" x="510" y="90" stroke="rgba(55, 255, 46, 1)"></use><use xlink:href="#SvgjsPath1637" x="510" y="150" stroke="rgba(103, 255, 104, 1)" stroke-width="3"></use><use xlink:href="#SvgjsPath1632" x="510" y="210" stroke="rgba(48, 245, 29, 1)"></use><use xlink:href="#SvgjsPath1634" x="510" y="270" stroke="rgba(48, 245, 29, 1)"></use><use xlink:href="#SvgjsPath1632" x="510" y="330" stroke="rgba(48, 245, 29, 1)"></use><use xlink:href="#SvgjsPath1634" x="510" y="390" stroke="rgba(55, 255, 46, 1)"></use><use xlink:href="#SvgjsPath1634" x="510" y="450" stroke="rgba(48, 245, 29, 1)"></use><use xlink:href="#SvgjsPath1633" x="510" y="510" stroke="rgba(55, 255, 46, 1)"></use><use xlink:href="#SvgjsPath1636" x="510" y="570" stroke="rgba(55, 255, 46, 1)"></use><use xlink:href="#SvgjsPath1635" x="510" y="630" stroke="rgba(48, 245, 29, 1)"></use><use xlink:href="#SvgjsPath1633" x="510" y="690" stroke="rgba(55, 255, 46, 1)"></use><use xlink:href="#SvgjsPath1636" x="570" y="30" stroke="rgba(48, 245, 29, 1)"></use><use xlink:href="#SvgjsPath1632" x="570" y="90" stroke="rgba(103, 255, 104, 1)"></use><use xlink:href="#SvgjsPath1632" x="570" y="150" stroke="rgba(48, 245, 29, 1)"></use><use xlink:href="#SvgjsPath1634" x="570" y="210" stroke="rgba(48, 245, 29, 1)"></use><use xlink:href="#SvgjsPath1632" x="570" y="270" stroke="rgba(48, 245, 29, 1)"></use><use xlink:href="#SvgjsPath1632" x="570" y="330" stroke="rgba(48, 245, 29, 1)"></use><use xlink:href="#SvgjsPath1634" x="570" y="390" stroke="rgba(103, 255, 104, 1)"></use><use xlink:href="#SvgjsPath1635" x="570" y="450" stroke="rgba(103, 255, 104, 1)"></use><use xlink:href="#SvgjsPath1633" x="570" y="510" stroke="rgba(48, 245, 29, 1)"></use><use xlink:href="#SvgjsPath1634" x="570" y="570" stroke="rgba(55, 255, 46, 1)"></use><use xlink:href="#SvgjsPath1633" x="570" y="630" stroke="rgba(55, 255, 46, 1)"></use><use xlink:href="#SvgjsPath1634" x="570" y="690" stroke="rgba(103, 255, 104, 1)"></use><use xlink:href="#SvgjsPath1636" x="630" y="30" stroke="rgba(103, 255, 104, 1)"></use><use xlink:href="#SvgjsPath1632" x="630" y="90" stroke="rgba(103, 255, 104, 1)"></use><use xlink:href="#SvgjsPath1633" x="630" y="150" stroke="rgba(55, 255, 46, 1)"></use><use xlink:href="#SvgjsPath1632" x="630" y="210" stroke="rgba(55, 255, 46, 1)"></use><use xlink:href="#SvgjsPath1633" x="630" y="270" stroke="rgba(55, 255, 46, 1)"></use><use xlink:href="#SvgjsPath1632" x="630" y="330" stroke="rgba(103, 255, 104, 1)"></use><use xlink:href="#SvgjsPath1634" x="630" y="390" stroke="rgba(103, 255, 104, 1)"></use><use xlink:href="#SvgjsPath1635" x="630" y="450" stroke="rgba(48, 245, 29, 1)"></use><use xlink:href="#SvgjsPath1634" x="630" y="510" stroke="rgba(48, 245, 29, 1)"></use><use xlink:href="#SvgjsPath1632" x="630" y="570" stroke="rgba(55, 255, 46, 1)"></use><use xlink:href="#SvgjsPath1636" x="630" y="630" stroke="rgba(48, 245, 29, 1)"></use><use xlink:href="#SvgjsPath1634" x="630" y="690" stroke="rgba(55, 255, 46, 1)"></use><use xlink:href="#SvgjsPath1632" x="690" y="30" stroke="rgba(55, 255, 46, 1)"></use><use xlink:href="#SvgjsPath1634" x="690" y="90" stroke="rgba(55, 255, 46, 1)"></use><use xlink:href="#SvgjsPath1637" x="690" y="150" stroke="rgba(55, 255, 46, 1)" stroke-width="3"></use><use xlink:href="#SvgjsPath1636" x="690" y="210" stroke="rgba(103, 255, 104, 1)"></use><use xlink:href="#SvgjsPath1632" x="690" y="270" stroke="rgba(48, 245, 29, 1)"></use><use xlink:href="#SvgjsPath1633" x="690" y="330" stroke="rgba(48, 245, 29, 1)"></use><use xlink:href="#SvgjsPath1636" x="690" y="390" stroke="rgba(55, 255, 46, 1)"></use><use xlink:href="#SvgjsPath1634" x="690" y="450" stroke="rgba(55, 255, 46, 1)"></use><use xlink:href="#SvgjsPath1636" x="690" y="510" stroke="rgba(103, 255, 104, 1)"></use><use xlink:href="#SvgjsPath1635" x="690" y="570" stroke="rgba(103, 255, 104, 1)"></use><use xlink:href="#SvgjsPath1636" x="690" y="630" stroke="rgba(103, 255, 104, 1)"></use><use xlink:href="#SvgjsPath1635" x="690" y="690" stroke="rgba(103, 255, 104, 1)"></use></symbol></svg>
