<?xml version="1.0" encoding="UTF-8" standalone="no"?>
<!DOCTYPE svg PUBLIC "-//W3C//DTD SVG 1.1//EN" "http://www.w3.org/Graphics/SVG/1.1/DTD/svg11.dtd">
<svg width="5120" height="1440" x="0" y="0" version="1.1" xmlns="http://www.w3.org/2000/svg" xmlns:xlink="http://www.w3.org/1999/xlink" xml:space="preserve" xmlns:serif="http://www.serif.com/" style="fill-rule:evenodd;clip-rule:evenodd;stroke-linecap:round;stroke-linejoin:round;stroke-miterlimit:1.5;">
		<linearGradient x1="17.97%" y1="-63.89%" x2="82.03%" y2="163.89%" gradientUnits="userSpaceOnUse" id="gradient">
        <stop stop-color="rgba(5, 16, 31, 1)" offset="0.02"></stop>
        <stop stop-color="rgba(14, 15, 20, 1)" offset="1"></stop>
    </linearGradient>
    <rect fill="url(#gradient)" width="5120" height="1440" x="0" y="0" />
   <pattern id="pattern" x="0" y="0" width=".25" height=".5">
        <g transform="matrix(0.0751659,-0.0623445,0.0623445,0.0751659,45.2548,45.2548)">
            <g transform="matrix(1,0,0,1,-288,-256)">
                <path d="M542.7,209.7C559.8,220.2 576,236.2 576,256C576,276.2 559.8,292.3 542.7,302.7C525.1,313.4 503.4,320 486.9,320L366.7,320L272.1,491.3C265.1,504.1 251.6,512 237.1,512L189,512C173.1,512 161.6,496.9 165.9,481.6L210.5,320L116,320L75.2,374.4C70.7,380.4 63.6,384 56,384L21.9,384C9.8,384 0,374.2 0,362.1C0,359.9 0.3,357.7 1,355.7L31.6,256L1,156.4C0.4,154.3 0,152.1 0,150C0,137.8 9.8,128 21.9,128L56,128C63.6,128 70.7,131.6 75.2,137.6L116,192L210.5,192L165.9,30.4C161.7,15.1 173.2,0 189,0L237.1,0C251.7,0 265.1,7.9 272.1,20.7L366.7,192L486.8,192C503.4,192 525.1,199 542.7,209.7ZM486.7,208L112,208C109.5,208 107.1,206.8 105.6,204.8L62.4,147.2C60.9,145.2 58.5,144 56,144L21.9,144C18.6,144 16,146.6 16,149.9C16,150.5 16.1,151.1 16.3,151.6L8.6,154L16.2,151.6L47.6,253.6C48.1,255.1 48.1,256.8 47.6,258.3L16.2,360.3L8.6,358L16.2,360.4C16,361 15.9,361.5 15.9,362.1C15.9,365.4 18.5,368 21.8,368L56,368C58.5,368 60.9,366.8 62.4,364.8L105.6,307.2C107.1,305.2 109.5,304 112,304L486.8,304C499.8,304 518.7,298.4 534.3,289C550.3,279.3 559.9,267.4 559.9,256C559.9,245.1 550.3,233.2 534.2,223.3C518.5,213.7 499.7,208 486.7,208ZM348.4,192L258.1,28.4C253.9,20.7 245.8,16 237.1,16L189,16C183.7,16 179.9,21 181.3,26.1L227.1,192L348.4,192ZM227.1,320L181.3,485.9C179.9,491 183.7,496 189,496L237.1,496C245.8,496 253.9,491.2 258.1,483.6L348.4,320L227.1,320Z" style="fill:rgb(255,170,51);fill-rule:nonzero;"/>
            </g>
        </g>
        <g transform="matrix(0.0690534,-0.0690534,0.0690534,0.0690534,700.4,294.207)">
            <g transform="matrix(1,0,0,1,-256,-256)">
                <path d="M256,496C123.5,496 16,388.5 16,256C16,232.7 19.3,210.2 25.5,188.9L44.7,227.2C53.5,244.7 68.9,257.9 87.6,263.7L156.4,285.2C172.8,290.3 184,305.5 184,322.7L184,334C184,348 191.9,360.8 204.4,367C211.5,370.5 216,377.8 216,385.7L216,424.7C216,446.3 233.5,463.8 255.1,463.8C273.4,463.8 289.3,451.1 293.2,433.2L298.1,411.1C301.2,397 310.2,384.9 322.7,377.7L331.7,372.5C349.1,362.5 359.9,344 359.9,323.9L359.9,315.6C359.9,300.7 354,286.5 343.5,276L339.6,272.1C329.2,261.9 315,256 300.1,256L251.3,256C245.1,256 239,254.6 233.4,251.8L187.5,228.9C183.9,227.1 180.9,224.1 179.1,220.5L178.4,219.1C174.1,210.6 177.6,200.2 186.1,195.9C190.2,193.8 195,193.5 199.3,195L223.5,203.1C235.1,207 247.8,202.6 254.6,192.4C261.3,182.4 260.6,169.2 252.9,160L235,138.5C230,132.5 230.1,123.8 235.1,117.8L256.1,93.3C266.6,81.1 268.7,63.8 261.5,49.4L245.1,16.2C248.7,16 252.4,16 256,16C343.2,16 419.5,62.5 461.5,132L406.9,156.8C388.3,165.3 379,186.4 385.5,205.9L403,258.3C407.2,271 417.5,280.7 430.4,284.2L491.8,301C470.7,412 373.2,496 256,496ZM32.8,167.7C64.7,87.2 138.8,28 227.9,17.6L247.4,56.5C251.7,65.1 250.4,75.5 244.2,82.9L223.2,107.4C213,119.3 212.9,136.7 222.9,148.7L240.8,170.2C243.9,174 244.2,179.4 241.5,183.5C238.7,187.7 233.5,189.5 228.8,187.9L204.6,179.8C196.2,177 187.1,177.7 179.2,181.6C162.8,189.8 156.1,209.8 164.3,226.3L165,227.7C168.4,234.4 173.8,239.9 180.6,243.3L226.5,266.2C234.3,270.1 242.9,272.1 251.5,272.1L300.3,272.1C310.9,272.1 321.1,276.3 328.6,283.8L332.5,287.7C340,295.2 344.2,305.4 344.2,316L344.2,324.3C344.2,338.7 336.5,351.9 324,359L314.9,364.2C298.4,373.6 286.7,389.5 282.6,408L277.7,430.1C275.4,440.7 266,448.2 255.2,448.2C242.5,448.2 232.1,437.9 232.1,425.1L232.1,386.1C232.1,372.1 224.2,359.3 211.7,353.1C204.6,349.6 200.1,342.3 200.1,334.4L200.1,322.8C200.1,298.6 184.4,277.2 161.3,270L92.4,248.5C77.9,244 65.8,233.7 59,220.1L32.8,167.7ZM434.6,268.8C426.9,266.7 420.7,260.8 418.1,253.2L400.6,200.8C396.7,189.1 402.3,176.4 413.4,171.4L469.4,146C486.4,179 496,216.4 496,256C496,265.8 495.4,275.5 494.3,285.1L434.7,268.8L434.6,268.8ZM256,512C396.437,512 512,396.437 512,256C512,115.563 396.437,0 256,0C115.563,0 -0,115.563 0,256C0,396.437 115.563,512 256,512Z" style="fill:rgb(81,169,246);fill-rule:nonzero;"/>
            </g>
        </g>
        <g transform="matrix(0.0690534,-0.0690534,0.0690534,0.0690534,814.587,181.019)">
            <g transform="matrix(1,0,0,1,-256,-256)">
                <clipPath id="_clip1">
                    <rect x="0" y="0" width="512" height="512"/>
                </clipPath>
                <g clip-path="url(#_clip1)">
                    <path d="M272,32C272,23.223 279.223,16 288,16C296.777,16 304,23.223 304,32C304,40.777 296.777,48 288,48C279.223,48 272,40.777 272,32ZM320,32C320,14.445 305.555,0 288,0C270.445,-0 256,14.445 256,32C256,49.555 270.445,64 288,64C305.555,64 320,49.555 320,32ZM192,48C200.777,48 208,55.223 208,64C208,72.777 200.777,80 192,80C183.223,80 176,72.777 176,64C176,55.223 183.223,48 192,48ZM192,96C209.555,96 224,81.555 224,64C224,46.445 209.555,32 192,32C174.445,32 160,46.445 160,64C160,81.555 174.445,96 192,96ZM416,240C442.5,240 464,261.5 464,288L464,448C464,474.5 442.5,496 416,496L96,496C69.5,496 48,474.5 48,448L48,288C48,261.5 69.5,240 96,240L416,240ZM416,224L264,224L264,126.4L505.8,71.8C510.1,70.8 512.8,66.5 511.8,62.2C510.8,57.9 506.5,55.2 502.2,56.2L6.2,168.2C1.9,169.2 -0.8,173.5 0.2,177.8C1.2,182.1 5.5,184.8 9.8,183.8L248,130L248,224L96,224C60.7,224 32,252.7 32,288L32,448C32,483.3 60.7,512 96,512L416,512C451.3,512 480,483.3 480,448L480,288C480,252.7 451.3,224 416,224ZM96,304C96,295.2 103.2,288 112,288L192,288L192,384L112,384C103.2,384 96,376.8 96,368L96,304ZM208,384L208,288L304,288L304,384L208,384ZM320,384L320,288L400,288C408.8,288 416,295.2 416,304L416,368C416,376.8 408.8,384 400,384L320,384ZM80,304L80,368C80,385.7 94.3,400 112,400L400,400C417.7,400 432,385.7 432,368L432,304C432,286.3 417.7,272 400,272L112,272C94.3,272 80,286.3 80,304Z" style="fill:rgb(241,85,114);fill-rule:nonzero;"/>
                </g>
            </g>
        </g>
        <g transform="matrix(0.0690534,-0.0690534,0.0690534,0.0690534,724.077,452.548)">
            <g transform="matrix(1,0,0,1,-320,-256)">
                <path d="M328,32C323.6,32 320,35.6 320,40C320,44.4 323.6,48 328,48L384.1,48C394.7,48 404.1,55 407.1,65.2L461.6,249.1C427.3,261.9 399.1,287.5 383,320L288,320C270.3,320 256,305.7 256,288L256,224C256,206.3 241.7,192 224,192L128,192C57.3,192 0,249.3 0,320L0,352C0,369.7 14.3,384 32,384L64,384C64,437 107,480 160,480C213,480 256,437 256,384L376.2,384C380.4,384 383.9,380.7 384.2,376.5C388.1,309.3 443.8,256 512,256C547.4,256 579.5,270.4 602.7,293.6C605.8,296.7 610.9,296.7 614,293.6C617.1,290.5 617.1,285.4 614,282.3C587.9,256.2 551.9,240 512,240C499.9,240 488.1,241.5 476.9,244.3L445.9,139.9L495.8,164.8C499.9,166.9 504.5,167.9 509.1,167.9C519.5,167.9 528,159.5 528,149L528,74.9C528,64.5 519.6,56 509.1,56C504.5,56 499.9,57.1 495.8,59.1L436.4,88.8L431.5,91.2L422.4,60.6C417.4,43.6 401.8,32 384,32L328,32ZM368.9,368L32,368C23.2,368 16,360.8 16,352L16,320C16,258.1 66.1,208 128,208L224,208C232.8,208 240,215.2 240,224L240,288C240,314.5 261.5,336 288,336L376.2,336C372.6,346.2 370.1,356.9 368.9,368ZM443.6,120.8C442.5,120.2 441.3,120 440.1,120L435.7,105.2L436.5,106.7L443.7,103.1L503,73.5C504.9,72.5 507,72 509.1,72C510.7,72 512,73.3 512,74.9L512,149.2C512,150.8 510.7,152.1 509.1,152.1C507,152.1 504.9,151.6 503,150.6L443.6,120.9L443.6,120.8ZM224,128C232.8,128 240,135.2 240,144C240,152.8 232.8,160 224,160L128,160C119.2,160 112,152.8 112,144C112,135.2 119.2,128 128,128L224,128ZM128,112C110.3,112 96,126.3 96,144C96,161.7 110.3,176 128,176L224,176C241.7,176 256,161.7 256,144C256,126.3 241.7,112 224,112L128,112ZM80,384L240,384C240,428.2 204.2,464 160,464C115.8,464 80,428.2 80,384ZM512,304C555.887,304 592,340.113 592,384C592,427.887 555.887,464 512,464C468.113,464 432,427.887 432,384C432,340.113 468.113,304 512,304ZM512,480C564.664,480 608,436.664 608,384C608,331.336 564.664,288 512,288C459.336,288 416,331.336 416,384C416,436.664 459.336,480 512,480Z" style="fill:rgb(255,170,51);fill-rule:nonzero;"/>
            </g>
        </g>
        <g transform="matrix(0.0690534,-0.0690534,0.0690534,0.0690534,135.765,678.823)">
            <g transform="matrix(1,0,0,1,-224,-256)">
                <path d="M384,16C410.5,16 432,37.5 432,64L432,448C432,474.5 410.5,496 384,496L64,496C37.5,496 16,474.5 16,448L16,64C16,37.5 37.5,16 64,16L384,16ZM64,0C28.7,0 0,28.7 0,64L0,448C0,483.3 28.7,512 64,512L384,512C419.3,512 448,483.3 448,448L448,64C448,28.7 419.3,0 384,0L64,0ZM96,392C96,396.4 99.6,400 104,400L344,400C348.4,400 352,396.4 352,392C352,387.6 348.4,384 344,384L104,384C99.6,384 96,387.6 96,392ZM96.2,184C96,186.6 96,189.3 96,192C96,194.7 96.1,197.4 96.2,200C100.4,267 156,320 224,320C292,320 347.6,267 351.8,200C352,197.4 352,194.7 352,192C352,189.3 351.9,186.6 351.8,184C347.6,117 292,64 224,64C156,64 100.4,117 96.2,184ZM112.2,200L168,200C169.4,241.3 181.1,270.2 193.1,289.3C196.2,294.2 199.2,298.3 202.2,301.9C153.3,292.3 115.8,250.8 112.2,200ZM335.6,200C332,250.8 294.5,292.3 245.6,301.9C248.5,298.3 251.6,294.1 254.7,289.3C266.7,270.3 278.5,241.3 279.8,200L335.6,200ZM335.7,184L279.9,184C278.5,142.7 266.8,113.8 254.8,94.7C251.7,89.8 248.7,85.7 245.7,82.1C294.6,91.7 332.1,133.2 335.7,184ZM112.2,184C115.8,133.2 153.3,91.7 202.2,82.1C199.3,85.7 196.2,89.9 193.1,94.7C181.1,113.7 169.3,142.7 168,184L112.2,184ZM206.7,103.3C212.3,94.4 217.9,88.1 222,84.1C222.7,83.4 223.3,82.8 223.9,82.3C224.5,82.8 225.1,83.4 225.8,84.1C229.9,88.1 235.5,94.4 241.1,103.3C251.6,119.9 262.4,146 263.7,184L184.1,184C185.4,145.9 196.2,119.9 206.7,103.3ZM263.9,200C262.6,238.1 251.8,264.1 241.3,280.7C235.7,289.6 230.1,295.9 226,299.9C225.3,300.6 224.7,301.2 224.1,301.7C223.5,301.2 222.9,300.6 222.2,299.9C218.1,295.9 212.5,289.6 206.9,280.7C196.4,264.1 185.6,238 184.3,200L264,200L263.9,200Z" style="fill:rgb(198,105,221);fill-rule:nonzero;"/>
            </g>
        </g>
        <g transform="matrix(0.0690534,-0.0690534,0.0690534,0.0690534,452.548,543.058)">
            <g transform="matrix(1,0,0,1,-256,-256)">
                <path d="M8,0C3.6,0 0,3.6 0,8C0,12.4 3.6,16 8,16L32,16L32,496L8,496C3.6,496 0,499.6 0,504C0,508.4 3.6,512 8,512L504,512C508.4,512 512,508.4 512,504C512,499.6 508.4,496 504,496L480,496L480,16L504,16C508.4,16 512,12.4 512,8C512,3.6 508.4,0 504,0L8,0ZM288,432L288,496L224,496L224,432C224,414.3 238.3,400 256,400C273.7,400 288,414.3 288,432ZM304,432C304,405.5 282.5,384 256,384C229.5,384 208,405.5 208,432L208,496L48,496L48,16L464,16L464,496L304,496L304,432ZM328,96L328,128C328,141.3 338.7,152 352,152L384,152C397.3,152 408,141.3 408,128L408,96C408,82.7 397.3,72 384,72L352,72C338.7,72 328,82.7 328,96ZM352,88L384,88C388.4,88 392,91.6 392,96L392,128C392,132.4 388.4,136 384,136L352,136C347.6,136 344,132.4 344,128L344,96C344,91.6 347.6,88 352,88ZM240,72C226.7,72 216,82.7 216,96L216,128C216,141.3 226.7,152 240,152L272,152C285.3,152 296,141.3 296,128L296,96C296,82.7 285.3,72 272,72L240,72ZM232,96C232,91.6 235.6,88 240,88L272,88C276.4,88 280,91.6 280,96L280,128C280,132.4 276.4,136 272,136L240,136C235.6,136 232,132.4 232,128L232,96ZM216,224L216,256C216,269.3 226.7,280 240,280L272,280C285.3,280 296,269.3 296,256L296,224C296,210.7 285.3,200 272,200L240,200C226.7,200 216,210.7 216,224ZM240,216L272,216C276.4,216 280,219.6 280,224L280,256C280,260.4 276.4,264 272,264L240,264C235.6,264 232,260.4 232,256L232,224C232,219.6 235.6,216 240,216ZM352,200C338.7,200 328,210.7 328,224L328,256C328,269.3 338.7,280 352,280L384,280C397.3,280 408,269.3 408,256L408,224C408,210.7 397.3,200 384,200L352,200ZM344,224C344,219.6 347.6,216 352,216L384,216C388.4,216 392,219.6 392,224L392,256C392,260.4 388.4,264 384,264L352,264C347.6,264 344,260.4 344,256L344,224ZM104,96L104,128C104,141.3 114.7,152 128,152L160,152C173.3,152 184,141.3 184,128L184,96C184,82.7 173.3,72 160,72L128,72C114.7,72 104,82.7 104,96ZM128,88L160,88C164.4,88 168,91.6 168,96L168,128C168,132.4 164.4,136 160,136L128,136C123.6,136 120,132.4 120,128L120,96C120,91.6 123.6,88 128,88ZM128,200C114.7,200 104,210.7 104,224L104,256C104,269.3 114.7,280 128,280L160,280C173.3,280 184,269.3 184,256L184,224C184,210.7 173.3,200 160,200L128,200ZM120,224C120,219.6 123.6,216 128,216L160,216C164.4,216 168,219.6 168,224L168,256C168,260.4 164.4,264 160,264L128,264C123.6,264 120,260.4 120,256L120,224ZM190.4,365.3C206.5,347.3 229.9,336 256,336C282.1,336 305.5,347.3 321.6,365.3C324.5,368.6 329.6,368.9 332.9,365.9C336.2,362.9 336.5,357.9 333.5,354.6C314.5,333.3 286.8,319.9 256,319.9C225.2,319.9 197.5,333.3 178.5,354.6C175.6,357.9 175.8,362.9 179.1,365.9C182.4,368.9 187.4,368.6 190.4,365.3Z" style="fill:rgb(81,169,246);fill-rule:nonzero;"/>
            </g>
        </g>
        <g transform="matrix(0.0690534,-0.0690534,0.0690534,0.0690534,1064.02,655.665)">
            <g transform="matrix(1,0,0,1,-320,-256)">
                <path d="M16,80L16,192L160,192L160,48L48,48C30.3,48 16,62.3 16,80ZM16,208L16,336C16,353.7 30.3,368 48,368L65.3,368C72.9,322.6 112.4,288 160,288C207.6,288 247.1,322.6 254.7,368L385.3,368C392.9,322.6 432.4,288 480,288C527.6,288 567.1,322.6 574.7,368L592,368C609.7,368 624,353.7 624,336L624,212.8C624,211.2 623.8,209.6 623.5,208L16,208ZM176,192L368,192L368,48L176,48L176,192ZM384,192L613.4,192L483.7,55.5C479.2,50.7 472.9,48 466.3,48L384,48L384,192ZM592,384L576,384C576,437 533,480 480,480C427,480 384,437 384,384L256,384C256,437 213,480 160,480C107,480 64,437 64,384L48,384C21.5,384 0,362.5 0,336L0,80C0,53.5 21.5,32 48,32L466.3,32C477.3,32 487.7,36.5 495.3,44.4L629,185.2C636.1,192.6 640,202.5 640,212.8L640,336C640,362.5 618.5,384 592,384ZM560,384C560,340.113 523.887,304 480,304C436.113,304 400,340.113 400,384C400,427.887 436.113,464 480,464C523.887,464 560,427.887 560,384ZM160,464C203.887,464 240,427.887 240,384C240,340.113 203.887,304 160,304C116.113,304 80,340.113 80,384C80,427.887 116.113,464 160,464Z" style="fill:rgb(241,85,114);fill-rule:nonzero;"/>
            </g>
        </g>
        <g transform="matrix(0.0690534,-0.0690534,0.0690534,0.0690534,1118.37,58.2548)">
            <g transform="matrix(1,0,0,1,-288,-256)">
                <path d="M168,16C245.7,16 290.4,53.2 309.2,89.1C310.2,91 311.9,92.4 314,93C316.1,93.6 318.3,93.4 320.1,92.4C342.6,80.2 371.7,72 408,72C504,72 549.6,128.9 558.4,169.8C558.7,171.4 558.3,172.7 557.3,173.8C556.2,175 554.3,175.9 552,175.9L492.5,175.9L470.8,139.8C469.4,137.4 466.7,135.9 463.9,135.9C461.1,135.9 458.5,137.4 457,139.8L435.5,176L265.1,176C263,176 260.9,176.9 259.4,178.4L107.2,333.7C105.6,335.3 103.7,336 102.1,335.9C100.7,335.8 99.4,335.2 98.5,333.8C76.6,299.7 67.8,232.1 127.5,171.2C128.1,170.6 128.7,169.9 129.4,169.3C161.4,137.6 195,125.7 224.2,124.8C228.6,124.7 232,120.9 231.9,116.5C231.8,112.1 228.1,108.5 223.8,108.7C207.6,109.2 190.5,112.6 173.1,120L116.5,120L94.9,83.9C93.5,81.5 90.9,80 88,80C85.1,80 82.6,81.5 81.1,83.9L59.5,120L24,120C21.7,120 19.9,119.1 18.7,117.9C17.7,116.8 17.2,115.4 17.6,113.9C26.4,72.9 72,16 168,16ZM112,136L144.3,136C135.2,142.3 126.1,149.9 117.2,158.9L116.2,159.9C50.9,226.5 59.4,302.4 85.1,342.4C93.3,355.1 109.7,354 118.6,344.8L240.2,220.8C242.6,231.7 244.5,244.5 245.5,259.2C249,308.6 243.2,378.8 217.6,470.5C211.9,491 227,512 248.7,512L330.9,512C346.9,512 360.9,500 362.2,483.5C369.7,385.4 347.9,273.2 315.9,192L298.5,192C330.8,271.2 353.6,384.2 346.1,482.3C345.5,490 338.9,496 330.8,496L248.6,496C238,496 230,485.5 233,474.8C259,381.8 265.2,309.7 261.5,258.1C260.1,238.3 257.2,221.4 253.4,207.4L268.5,192L440,192C442.8,192 445.4,190.5 446.9,188.1L464,159.5L481.1,188.1C482.5,190.5 485.1,192 488,192L552,192C564.7,192 577.2,181.2 574,166.5C563.6,117.8 511.2,56 408,56C372.7,56 343.3,63.2 319.5,74.7C296,36 246.8,0 168,0C64.8,0 12.4,61.8 2,110.5C-1.2,125.2 11.3,136 24,136L64,136C66.8,136 69.4,134.5 70.9,132.1L88,103.5L105.1,132.1C106.5,134.5 109.1,136 112,136Z" style="fill:rgb(92,193,104);fill-rule:nonzero;"/>
            </g>
        </g>
        <g transform="matrix(0.0690534,-0.0690534,0.0690534,0.0690534,678.823,135.765)">
            <g transform="matrix(1,0,0,1,-224,-256)">
                <clipPath id="_clip2">
                    <rect x="0" y="0" width="448" height="512"/>
                </clipPath>
                <g clip-path="url(#_clip2)">
                    <path d="M78.8,16C61.8,16 45.7,23.7 35.1,37L22.2,53C19.4,56.5 14.4,57 11,54.2C7.6,51.4 7,46.5 9.8,43L22.5,27C36.2,9.9 56.9,0 78.8,0L369.2,0C391.1,0 411.8,9.9 425.4,27L438.2,43C441,46.4 440.4,51.5 437,54.2C433.6,56.9 428.5,56.4 425.8,53L413,37C402.4,23.7 386.3,16 369.3,16L232,16L232,96L288,96C341,96 384,139 384,192L384,352C384,383.8 368.6,412 344.8,429.4L413.7,498.3C416.8,501.4 416.8,506.5 413.7,509.6C410.6,512.7 405.5,512.7 402.4,509.6L330.7,438C317.8,444.4 303.3,448 288,448L160,448C144.7,448 130.2,444.4 117.3,438L45.7,509.7C42.6,512.8 37.5,512.8 34.4,509.7C31.3,506.6 31.3,501.5 34.4,498.4L103.3,429.5C79.4,412 64,383.8 64,352L64,192C64,139 107,96 160,96L216,96L216,16L78.8,16ZM288,112L160,112C115.8,112 80,147.8 80,192L80,352C80,396.2 115.8,432 160,432L288,432C332.2,432 368,396.2 368,352L368,192C368,147.8 332.2,112 288,112ZM176,352C176,343.223 168.777,336 160,336C151.223,336 144,343.223 144,352C144,360.777 151.223,368 160,368C168.777,368 176,360.777 176,352ZM128,352C128,334.445 142.445,320 160,320C177.555,320 192,334.445 192,352C192,369.555 177.555,384 160,384C142.445,384 128,369.555 128,352ZM288,368C296.777,368 304,360.777 304,352C304,343.223 296.777,336 288,336C279.223,336 272,343.223 272,352C272,360.777 279.223,368 288,368ZM288,320C305.555,320 320,334.445 320,352C320,369.555 305.555,384 288,384C270.445,384 256,369.555 256,352C256,334.445 270.445,320 288,320ZM160,176C151.2,176 144,183.2 144,192L144,224C144,232.8 151.2,240 160,240L288,240C296.8,240 304,232.8 304,224L304,192C304,183.2 296.8,176 288,176L160,176ZM128,192C128,174.3 142.3,160 160,160L288,160C305.7,160 320,174.3 320,192L320,224C320,241.7 305.7,256 288,256L160,256C142.3,256 128,241.7 128,224L128,192Z" style="fill:rgb(198,105,221);fill-rule:nonzero;"/>
                </g>
            </g>
        </g>
        <g transform="matrix(0.0690534,-0.0690534,0.0690534,0.0690534,384.796,248.771)">
            <g transform="matrix(1,0,0,1,-224,-256)">
                <clipPath id="_clip3">
                    <rect x="0" y="0" width="448" height="512"/>
                </clipPath>
                <g clip-path="url(#_clip3)">
                    <path d="M169,0C164.6,0 161,3.6 161,8C161,12.4 164.6,16 169,16L217,16L217,80L161,80C143.3,80 129,94.3 129,112L129,128L40,128C19,128 3.7,147.8 9,168.1L49,321C39.2,324 32,333.1 32,344L32,360C32,373.3 42.7,384 56,384L81,384L81,504C81,508.4 84.6,512 89,512C93.4,512 97,508.4 97,504L97,384L353,384L353,504C353,508.4 356.6,512 361,512C365.4,512 369,508.4 369,504L369,384L392,384C405.3,384 416,373.3 416,360L416,344C416,333.8 409.7,325.2 400.8,321.7L440.9,168.1C446.2,147.8 430.9,128 409.9,128L321,128L321,112C321,94.3 306.7,80 289,80L233,80L233,16L281,16C285.4,16 289,12.4 289,8C289,3.6 285.4,0 281,0L169,0ZM384.7,320L321,320L321,144L409.9,144C420.4,144 428,153.9 425.4,164L385.2,318L384.7,320ZM305,320L145,320L145,144L305,144L305,320ZM129,320L65.2,320L64.7,318L24.5,164C21.9,153.9 29.5,144 40,144L129,144L129,320ZM392,368L56,368C51.6,368 48,364.4 48,360L48,344C48,339.6 51.6,336 56,336L392,336C396.4,336 400,339.6 400,344L400,360C400,364.4 396.4,368 392,368ZM305,128L145,128L145,112C145,103.2 152.2,96 161,96L289,96C297.8,96 305,103.2 305,112L305,128Z" style="fill:rgb(92,193,104);fill-rule:nonzero;"/>
                </g>
            </g>
        </g>
        <g transform="matrix(0.0690534,-0.0690534,0.0690534,0.0690534,995.606,362.039)">
            <g transform="matrix(1,0,0,1,-320,-256)">
                <path d="M64,80C37.5,80 16,101.5 16,128L16,384C16,410.5 37.5,432 64,432L576,432C602.5,432 624,410.5 624,384L624,320C588.7,320 560,291.3 560,256C560,220.7 588.7,192 624,192L624,128C624,101.5 602.5,80 576,80L64,80ZM0,128C0,92.7 28.7,64 64,64L576,64C611.3,64 640,92.7 640,128L640,194.4C640,202.4 632,208 624,208C597.5,208 576,229.5 576,256C576,282.5 597.5,304 624,304C632,304 640,309.6 640,317.6L640,384C640,419.3 611.3,448 576,448L64,448C28.7,448 0,419.3 0,384L0,128ZM464,144C472.777,144 480,151.223 480,160C480,168.777 472.777,176 464,176C455.223,176 448,168.777 448,160C448,151.223 455.223,144 464,144ZM464,208C472.777,208 480,215.223 480,224C480,232.777 472.777,240 464,240C455.223,240 448,232.777 448,224C448,215.223 455.223,208 464,208ZM448,288C448,279.223 455.223,272 464,272C472.777,272 480,279.223 480,288C480,296.777 472.777,304 464,304C455.223,304 448,296.777 448,288ZM464,336C472.777,336 480,343.223 480,352C480,360.777 472.777,368 464,368C455.223,368 448,360.777 448,352C448,343.223 455.223,336 464,336ZM187.1,128L218.2,128C229.6,128 240.1,134 245.8,143.9L287.9,216L326.9,216C345.1,216 362.5,223.2 375.4,236.1C386.4,247.1 386.4,264.9 375.4,276C362.5,288.9 345.1,296.1 326.9,296.1L287.9,296.1L245.8,368.2C240.1,378 229.5,384.1 218.2,384.1L187.1,384.1C176.2,384.1 168.5,373.4 171.9,363L194.2,296L156,296L139.2,318.4C134.7,324.4 127.6,328 120,328L106.2,328C95.8,328 88.2,318.2 90.7,308.1L103.2,257.9C103.5,256.6 103.5,255.3 103.2,254L90.7,203.9C88.2,193.8 95.8,184 106.2,184L120,184C127.6,184 134.7,187.6 139.2,193.6L156,216L194.2,216L171.9,149.1C168.4,138.7 176.2,128 187.1,128ZM187.1,144L212.9,221.5C213.7,223.9 213.3,226.6 211.8,228.7C210.3,230.8 207.9,232 205.3,232L152,232C149.5,232 147.1,230.8 145.6,228.8L126.4,203.2C124.9,201.2 122.5,200 120,200L106.2,200L118.7,250.2C119.7,254 119.7,258 118.7,261.8L106.2,312L120,312C122.5,312 124.9,310.8 126.4,308.8L145.6,283.2C147.1,281.2 149.5,280 152,280L205.3,280C207.9,280 210.3,281.2 211.8,283.3C213.3,285.4 213.7,288.1 212.9,290.5L187.1,368L218.2,368C223.9,368 229.2,365 232,360.1L276.4,284C277.8,281.5 280.5,280 283.3,280L326.9,280C340.8,280 354.2,274.5 364,264.6C368.8,259.8 368.8,252.1 364,247.4C354.1,237.5 340.8,232 326.9,232L283.3,232C280.5,232 277.8,230.5 276.4,228L232,151.9C229.1,147 223.9,144 218.2,144L187.1,144Z" style="fill:rgb(241,85,114);fill-rule:nonzero;"/>
            </g>
        </g>
        <g transform="matrix(0.0690534,-0.0690534,0.0690534,0.0690534,90.5097,362.039)">
            <g transform="matrix(1,0,0,1,-256,-256)">
                <path d="M176,40L176,64L336,64L336,40C336,26.7 325.3,16 312,16L200,16C186.7,16 176,26.7 176,40ZM160,64L160,40C160,17.9 177.9,0 200,0L312,0C334.1,0 352,17.9 352,40L352,64C384,64.1 412.1,85.4 421,116.2L454,231.8C488.1,246.5 512,280.5 512,320L512,480C512,497.7 497.7,512 480,512L448,512C430.3,512 416,497.7 416,480L416,432L96,432L96,480C96,497.7 81.7,512 64,512L32,512C14.3,512 0,497.7 0,480L0,320C0,280.5 23.9,246.5 58,231.8L91,116.2C99.9,85.4 128,64.1 160,64ZM16,416L496,416L496,320C496,275.8 460.2,240 416,240L96,240C51.8,240 16,275.8 16,320L16,416ZM432,432L432,480C432,488.8 439.2,496 448,496L480,496C488.8,496 496,488.8 496,480L496,432L432,432ZM16,432L16,480C16,488.8 23.2,496 32,496L64,496C72.8,496 80,488.8 80,480L80,432L16,432ZM160.3,80C135.3,80 113.3,96.6 106.5,120.6L76.3,226C82.7,224.7 89.2,224 96,224L416,224C422.7,224 429.3,224.7 435.7,226L405.6,120.6C398.7,96.6 376.8,80 351.8,80L160.3,80ZM96,336C104.777,336 112,328.777 112,320C112,311.223 104.777,304 96,304C87.223,304 80,311.223 80,320C80,328.777 87.223,336 96,336ZM96,288C113.555,288 128,302.445 128,320C128,337.555 113.555,352 96,352C78.445,352 64,337.555 64,320C64,302.445 78.445,288 96,288ZM432,320C432,311.223 424.777,304 416,304C407.223,304 400,311.223 400,320C400,328.777 407.223,336 416,336C424.777,336 432,328.777 432,320ZM384,320C384,302.445 398.445,288 416,288C433.555,288 448,302.445 448,320C448,337.555 433.555,352 416,352C398.445,352 384,337.555 384,320Z" style="fill:rgb(253,205,73);fill-rule:nonzero;"/>
            </g>
        </g>
        <g transform="matrix(0.0690534,-0.0690534,0.0690534,0.0690534,1153.53,385.131)">
            <g transform="matrix(1,0,0,1,-192,-256)">
                <path d="M112,40L112,128L272,128L272,40C272,26.7 261.3,16 248,16L136,16C122.7,16 112,26.7 112,40ZM96,128L96,40C96,17.9 113.9,0 136,0L248,0C270.1,0 288,17.9 288,40L288,128L320,128C355.3,128 384,156.7 384,192L384,416C384,451.3 355.3,480 320,480C320,497.7 305.7,512 288,512C270.3,512 256,497.7 256,480L128,480C128,497.7 113.7,512 96,512C78.3,512 64,497.7 64,480C28.7,480 0,451.3 0,416L0,192C0,156.7 28.7,128 64,128L96,128ZM80,480C80,488.8 87.2,496 96,496C104.8,496 112,488.8 112,480L80,480ZM64,464L320,464C346.5,464 368,442.5 368,416L368,192C368,165.5 346.5,144 320,144L64,144C37.5,144 16,165.5 16,192L16,416C16,442.5 37.5,464 64,464ZM272,480C272,488.8 279.2,496 288,496C296.8,496 304,488.8 304,480L272,480ZM80,248C80,243.6 83.6,240 88,240L296,240C300.4,240 304,243.6 304,248C304,252.4 300.4,256 296,256L88,256C83.6,256 80,252.4 80,248ZM80,360C80,355.6 83.6,352 88,352L296,352C300.4,352 304,355.6 304,360C304,364.4 300.4,368 296,368L88,368C83.6,368 80,364.4 80,360Z" style="fill:rgb(255,170,51);fill-rule:nonzero;"/>
            </g>
        </g>
        <g transform="matrix(0.0690534,-0.0690534,0.0690534,0.0690534,271.529,543.058)">
            <g transform="matrix(1,0,0,1,-320,-256)">
                <path d="M248,16C243.6,16 240,19.6 240,24L240,32L368,32L368,24C368,19.6 364.4,16 360,16L248,16ZM224,32L224,24C224,10.7 234.7,0 248,0L360,0C373.3,0 384,10.7 384,24L384,32L510.4,32C564.3,32 608,75.7 608,129.6C608,146.4 594.4,160 577.6,160L408,160C394.7,160 384,170.7 384,184L384,392C384,396.4 380.4,400 376,400L284.7,400C286.9,407.6 288,415.7 288,424C288,472.6 248.6,512 200,512C151.4,512 112,472.6 112,424C112,413.5 113.8,403.4 117.2,394L22.9,324.8C8.5,314.3 0,297.5 0,279.7L0,88C0,57.1 25.1,32 56,32L224,32ZM510.4,48L56,48C33.9,48 16,65.9 16,88L16,279.7C16,292.4 22.1,304.4 32.3,312L124.1,379.4C139.5,353.4 167.7,336 200,336C234.2,336 263.8,355.5 278.4,384L368,384L368,184C368,161.9 385.9,144 408,144L577.6,144C585.6,144 592,137.6 592,129.6C592,84.5 555.5,48 510.4,48ZM200,496C239.498,496 272,463.498 272,424C272,384.502 239.498,352 200,352C160.502,352 128,384.502 128,424C128,463.498 160.502,496 200,496ZM488,496C527.498,496 560,463.498 560,424C560,384.502 527.498,352 488,352C448.502,352 416,384.502 416,424C416,463.498 448.502,496 488,496ZM488,336C536.275,336 576,375.725 576,424C576,472.275 536.275,512 488,512C439.725,512 400,472.275 400,424C400,375.725 439.725,336 488,336ZM272,128L112,128C103.2,128 96,135.2 96,144L96,208C96,216.8 103.2,224 112,224L272,224C280.8,224 288,216.8 288,208L288,144C288,135.2 280.8,128 272,128ZM112,112L272,112C289.7,112 304,126.3 304,144L304,208C304,225.7 289.7,240 272,240L112,240C94.3,240 80,225.7 80,208L80,144C80,126.3 94.3,112 112,112ZM416,200C416,195.6 419.6,192 424,192L517.1,192C525.9,192 534.5,194.9 541.5,200.3L624.4,264.1C634.2,271.7 640,283.4 640,295.8L640,360C640,382.1 622.1,400 600,400L592,400C587.6,400 584,396.4 584,392C584,387.6 587.6,384 592,384L600,384C613.3,384 624,373.3 624,360L624,295.8C624,293.1 623.6,290.5 622.7,288L424,288C419.6,288 416,284.4 416,280C416,275.6 419.6,272 424,272L608.5,272L531.8,213C527.6,209.8 522.5,208 517.2,208L424,208C419.6,208 416,204.4 416,200Z" style="fill:rgb(241,85,114);fill-rule:nonzero;"/>
            </g>
        </g>
        <g transform="matrix(0.0690534,-0.0690534,0.0690534,0.0690534,112.607,520.961)">
            <g transform="matrix(1,0,0,1,-320,-256)">
                <path d="M304,40C304,26.7 314.7,16 328,16L472,16C485.3,16 496,26.7 496,40L496,200C496,204.4 499.6,208 504,208L600,208C613.3,208 624,218.7 624,232L624,496C624,500.4 627.6,504 632,504C636.4,504 640,500.4 640,496L640,232C640,209.9 622.1,192 600,192L576,192L576,104C576,99.6 572.4,96 568,96C563.6,96 560,99.6 560,104L560,192L512,192L512,40C512,17.9 494.1,0 472,0L328,0C305.9,0 288,17.9 288,40L288,140.1L304,166.6L304,40ZM239.7,153L321.2,288L223,288C220.5,288 218.1,289.2 216.6,291.2L174.8,347L127,287.9L208.3,153C211.7,147.4 217.7,144 224,144C230.3,144 236.3,147.3 239.7,153ZM18.8,467.2L118.2,302.5L168.8,365C170.4,366.9 172.7,368 175.2,368C177.7,368 180,366.8 181.5,364.8L227,304L330.8,304L429.2,467.2C432.7,473.1 432.9,480.5 429.6,486.5C426.3,492.5 420.1,496.1 413.5,496.1L34.5,496.1C27.9,496.1 21.8,492.5 18.4,486.5C15.1,480.5 15.2,473.1 18.8,467.2ZM253.4,144.7C247.1,134.3 236,128 224,128C212,128 200.9,134.3 194.6,144.7L5.1,458.9C-1.4,469.7 -1.6,483.2 4.4,494.2C10.4,505.2 22,512 34.5,512L413.5,512C426,512 437.5,505.2 443.6,494.2C449.7,483.2 449.4,469.7 442.9,458.9L253.4,144.7ZM360,96L360,128C360,141.3 370.7,152 384,152L416,152C429.3,152 440,141.3 440,128L440,96C440,82.7 429.3,72 416,72L384,72C370.7,72 360,82.7 360,96ZM384,88L416,88C420.4,88 424,91.6 424,96L424,128C424,132.4 420.4,136 416,136L384,136C379.6,136 376,132.4 376,128L376,96C376,91.6 379.6,88 384,88ZM384,200C379.6,200 376,203.6 376,208C376,212.4 379.6,216 384,216L416,216C420.4,216 424,219.6 424,224L424,256C424,260.4 427.6,264 432,264C436.4,264 440,260.4 440,256L440,224C440,210.7 429.3,200 416,200L384,200ZM488,288L488,320C488,333.3 498.7,344 512,344L544,344C557.3,344 568,333.3 568,320L568,288C568,274.7 557.3,264 544,264L512,264C498.7,264 488,274.7 488,288ZM512,280L544,280C548.4,280 552,283.6 552,288L552,320C552,324.4 548.4,328 544,328L512,328C507.6,328 504,324.4 504,320L504,288C504,283.6 507.6,280 512,280ZM512,392C498.7,392 488,402.7 488,416L488,448C488,461.3 498.7,472 512,472L544,472C557.3,472 568,461.3 568,448L568,416C568,402.7 557.3,392 544,392L512,392ZM504,416C504,411.6 507.6,408 512,408L544,408C548.4,408 552,411.6 552,416L552,448C552,452.4 548.4,456 544,456L512,456C507.6,456 504,452.4 504,448L504,416Z" style="fill:rgb(255,170,51);fill-rule:nonzero;"/>
            </g>
        </g>
        <g transform="matrix(0.0690534,-0.0690534,0.0690534,0.0690534,248.642,384.926)">
            <g transform="matrix(1,0,0,1,-288,-256)">
                <path d="M288,16C163.5,16 101.6,56.5 82.9,79.7C81,82.1 80,85.5 80,89.9L80,96L496,96L496,89.9C496,85.6 495,82 493,79.4C475.7,56.4 421.7,16 288,16ZM80,256L280,256L280,112L80,112L80,256ZM296,256L496,256L496,112L296,112L296,256ZM80,392C80,414.1 97.9,432 120,432L456.1,432C478.2,432 496,414.1 496,392L496,272L80,272L80,392ZM384,448L192,448L192,480C192,497.7 177.7,512 160,512L128,512C110.3,512 96,497.7 96,480L96,442.6C77.1,433.6 64,414.3 64,392L64,89.9C64,83.3 65.5,75.8 70.5,69.7C93.2,41.4 160.6,0 288,0C424.6,0 484.4,41.3 505.8,69.8C510.4,76 512,83.3 512,89.9L512,392C512,414.3 498.9,433.6 480,442.6L480,480C480,497.7 465.7,512 448,512L416,512C398.3,512 384,497.7 384,480L384,448ZM464,448L400,448L400,480C400,488.8 407.2,496 416,496L448,496C456.8,496 464,488.8 464,480L464,448ZM176,448L112,448L112,480C112,488.8 119.2,496 128,496L160,496C168.8,496 176,488.8 176,480L176,448ZM120,352C120,330.057 138.057,312 160,312C181.943,312 200,330.057 200,352C200,373.943 181.943,392 160,392C138.057,392 120,373.943 120,352ZM160,376C173.166,376 184,365.166 184,352C184,338.834 173.166,328 160,328C146.834,328 136,338.834 136,352C136,365.166 146.834,376 160,376ZM416,312C437.943,312 456,330.057 456,352C456,373.943 437.943,392 416,392C394.057,392 376,373.943 376,352C376,330.057 394.057,312 416,312ZM440,352C440,338.834 429.166,328 416,328C402.834,328 392,338.834 392,352C392,365.166 402.834,376 416,376C429.166,376 440,365.166 440,352ZM224,48L352,48C356.4,48 360,51.6 360,56C360,60.4 356.4,64 352,64L224,64C219.6,64 216,60.4 216,56C216,51.6 219.6,48 224,48ZM0,136C0,122.7 10.7,112 24,112L32,112C36.4,112 40,115.6 40,120C40,124.4 36.4,128 32,128L24,128C19.6,128 16,131.6 16,136L16,248C16,252.4 19.6,256 24,256L32,256C36.4,256 40,259.6 40,264C40,268.4 36.4,272 32,272L24,272C10.7,272 0,261.3 0,248L0,136ZM552,112C565.3,112 576,122.7 576,136L576,248C576,261.3 565.3,272 552,272L544,272C539.6,272 536,268.4 536,264C536,259.6 539.6,256 544,256L552,256C556.4,256 560,252.4 560,248L560,136C560,131.6 556.4,128 552,128L544,128C539.6,128 536,124.4 536,120C536,115.6 539.6,112 544,112L552,112Z" style="fill:rgb(198,105,221);fill-rule:nonzero;"/>
            </g>
        </g>
        <g transform="matrix(0.0690534,-0.0690534,0.0690534,0.0690534,787.01,27.5772)">
            <g transform="matrix(1,0,0,1,-256,-256)">
                <path d="M496,424.1C496,446.1 478.1,464 456.1,464L55.9,464C33.9,464 16,446.1 16,424.1C16,416.6 18.1,409.2 22.1,402.9L130.6,229.9L186.3,285.6C189.4,288.7 194.5,288.7 197.6,285.6L259.3,224L377.7,224L489.9,402.9C493.9,409.3 496,416.6 496,424.1ZM367.6,208L256,208C253.9,208 251.8,208.8 250.3,210.3L192,268.7L139.4,216.1L238.8,57.5C242.5,51.6 249,48 256,48C263,48 269.5,51.6 273.2,57.5L367.6,208ZM55.9,480L456.1,480C487,480 512,455 512,424.1C512,413.6 509,403.3 503.4,394.4L286.8,49C280.2,38.4 268.5,32 256,32C243.5,32 231.9,38.4 225.2,49L8.6,394.4C3,403.3 0,413.6 0,424.1C0,455 25,480 55.9,480Z" style="fill:rgb(47,190,238);fill-rule:nonzero;"/>
            </g>
        </g>
        <g transform="matrix(0.0943287,-0.0252753,0.0252753,0.0943287,543.058,271.529)">
            <g transform="matrix(1,0,0,1,-256,-256)">
                <clipPath id="_clip4">
                    <rect x="0" y="0" width="512" height="512"/>
                </clipPath>
                <g clip-path="url(#_clip4)">
                    <path d="M248,0C252.4,0 256,3.6 256,8L256,198.3L240,202.6L240,8C240,3.6 243.6,0 248,0ZM272,297.7L272,431.7L304,419.5L304,266.5C304,250.7 289.1,239.2 273.8,243.3L217.9,258.2C210.3,260.2 202.4,256.5 199.2,249.4L170.4,186C165.5,175 154.6,168 142.7,168C120.4,168 105.7,191.1 115,211.3L147.9,282.5C154.4,296.6 170.2,304 185.2,300L251.9,282.2C256.7,280.9 261.8,281.9 265.8,285C269.8,288.1 272.1,292.7 272.1,297.7L272,297.7ZM320,266.5L320,413.5L465,358.4C483.6,351.3 496,333.5 496,313.5L496,296C496,291.6 499.6,288 504,288C508.4,288 512,291.6 512,296L512,313.4C512,340 495.6,363.8 470.7,373.2L106.8,511.5C102.7,513.1 98,511 96.5,506.9C95,502.8 97,498.1 101.1,496.6L256,437.7L256,297.7L240,302L189.3,315.5C166.7,321.5 143.1,310.4 133.4,289.2L100.4,218C86.2,187.2 108.7,152 142.6,152C160.8,152 177.4,162.7 184.9,179.3L213.7,242.7L269.6,227.8C295,221 319.9,240.2 319.9,266.4L320,266.5ZM144,80C144,62.445 129.555,48 112,48C94.445,48 80,62.445 80,80C80,97.555 94.445,112 112,112C129.555,112 144,97.555 144,80ZM112,32C138.332,32 160,53.668 160,80C160,106.332 138.332,128 112,128C85.668,128 64,106.332 64,80C64,53.668 85.668,32 112,32ZM15.4,164.8L87.1,332.2C99,359.9 130.6,373.2 158.7,362.4L205.2,344.5C209.3,342.9 214,345 215.5,349.1C217,353.2 215,357.9 210.9,359.4L164.4,377.3C128.3,391.2 87.6,374 72.4,338.5L0.6,171.2C-1.1,167.1 0.7,162.4 4.8,160.7C8.9,159 13.6,160.8 15.3,164.9L15.4,164.8Z" style="fill:rgb(47,190,238);fill-rule:nonzero;"/>
                </g>
            </g>
        </g>
        <g transform="matrix(0.0690534,-0.0690534,0.0690534,0.0690534,226.274,226.274)">
            <g transform="matrix(1,0,0,1,-192,-256)">
                <clipPath id="_clip5">
                    <rect x="0" y="0" width="384" height="512"/>
                </clipPath>
                <g clip-path="url(#_clip5)">
                    <path d="M208,48C208,65.555 222.445,80 240,80C257.555,80 272,65.555 272,48C272,30.445 257.555,16 240,16C222.445,16 208,30.445 208,48ZM240,96C213.668,96 192,74.332 192,48C192,21.668 213.668,0 240,0C266.332,-0 288,21.668 288,48C288,74.332 266.332,96 240,96ZM169.1,182.7L148.7,266.7C144.8,283 149.6,300.1 161.4,312L237.7,388.3C239.2,389.8 240,391.8 240,394L240,480C240,488.8 247.2,496 256,496C264.8,496 272,488.8 272,480L272,390.6C272,382.1 268.6,374 262.6,368L209.7,315.1C207.7,313.1 206.9,310.2 207.6,307.5L232.2,209.2C233,206.1 235.5,203.8 238.6,203.3C241.7,202.8 244.9,204.1 246.6,206.7L269.9,241.7C275.8,250.6 285.8,255.9 296.5,255.9L352,255.9C360.8,255.9 367.9,248.8 368,240L368,239.7C367.9,230.9 360.8,223.8 352,223.8L300.8,223.8C298.1,223.8 295.6,222.5 294.1,220.2L263.3,173.9C254.6,160.9 241.4,151.6 226.3,147.8C200.9,141.4 175.2,157 169,182.5L169.1,182.7ZM368,267.7C363.3,270.4 357.8,272 352,272L296.6,272C280.6,272 265.6,264 256.7,250.6L243.4,230.6L224.2,307L273.9,356.7C282.9,365.7 288,377.9 288,390.6L288,480C288,497.7 273.7,512 256,512C238.3,512 224,497.7 224,480L224,397.3L150.1,323.4C134.3,307.6 127.9,284.8 133.2,263.1L153.6,179.1C161.9,145 196.3,124.2 230.3,132.7C249.3,137.5 265.9,149.1 276.7,165.4L305.1,208L352,208C357.8,208 363.3,209.6 368,212.3L368,168C368,163.6 371.6,160 376,160C380.4,160 384,163.6 384,168L384,504C384,508.4 380.4,512 376,512C371.6,512 368,508.4 368,504L368,267.7ZM117.3,334C120.3,338.2 123.7,342.2 127.4,345.9L130,348.5L96.5,475.9C94.3,484.4 99.4,493.2 107.9,495.4C116.4,497.6 125.2,492.5 127.4,484L156.2,374.7L169.3,387.8L142.9,488.1C138.4,505.2 120.9,515.4 103.8,510.9C86.7,506.4 76.5,488.9 81,471.8L117.3,334ZM109.1,88L113.3,88C134.1,88 149.4,107.6 144.3,127.8L109.1,268.4C105.1,284.6 89.3,294.9 72.8,292.2L24.9,284.2C6.2,281.1 -5.7,262.5 -0.7,244.2L24.2,152.8C34.6,114.6 69.4,88 109.1,88ZM39.6,157.1L14.7,248.5C12.2,257.6 18.2,266.9 27.5,268.5L75.4,276.5C83.6,277.9 91.5,272.7 93.6,264.6L128.8,123.9C131.3,113.8 123.7,104 113.3,104L109.1,104C76.6,104 48.2,125.7 39.6,157.1Z" style="fill:rgb(92,193,104);fill-rule:nonzero;"/>
                </g>
            </g>
        </g>
        <g transform="matrix(5.97972e-18,-0.0976562,0.0976562,5.97972e-18,69.2548,202.274)">
            <g transform="matrix(1,0,0,1,-256,-256)">
                <clipPath id="_clip6">
                    <rect x="0" y="0" width="512" height="512"/>
                </clipPath>
                <g clip-path="url(#_clip6)">
                    <path d="M353.2,24C344,9.5 323.1,9 313.3,23L248.4,115.4L247.6,74.5C247.3,59 232.6,47.9 217.6,51.7L181.8,60.9L149.8,23.6C140.7,13 124.6,12.4 114.7,22.2L75,61.4L40.4,57.1C23.6,55 9.9,70.6 14.2,87L52.1,232.3C52.9,235.3 51.9,238.4 49.5,240.4L29,257.7C16,268.7 18.3,289.4 33.3,297.3L144.8,355.8L2.3,498.3C-0.8,501.4 -0.8,506.5 2.3,509.6C5.4,512.7 10.5,512.7 13.6,509.6L158.6,364.6L222.6,486.6C230.5,501.7 251.2,504 262.2,490.9L279.5,470.4C281.5,468 284.6,467 287.6,467.8L433,505.8C449.4,510.1 465,496.4 462.9,479.6L460,456.6C459.1,449.3 461.6,442 466.8,436.7L497.9,405.3C507.7,395.4 507,379.3 496.5,370.2L459.2,338.2L468.4,302.4C472.2,287.4 461.1,272.7 445.6,272.4L404.7,271.6L493.5,209.2C508.8,198.5 506.5,175.1 489.4,167.6L471.9,159.9C460.5,154.9 454.9,142.1 458.8,130.3L479,70.3C485.2,52 468.2,34.3 449.7,39.6L393.7,55.6C383.5,58.5 372.5,54.4 366.8,45.4L353.2,24ZM170.5,352.8L317.7,205.7C320.8,202.6 320.8,197.5 317.7,194.4C314.6,191.3 309.5,191.3 306.4,194.4L156.7,344L40.8,283.2C35.8,280.6 35,273.7 39.4,270L59.9,252.7C67,246.7 70,237.3 67.6,228.3L29.7,83C28.3,77.5 32.8,72.3 38.4,73L76.8,77.8C79.2,78.1 81.7,77.3 83.4,75.5L125.8,33.5C129.1,30.2 134.5,30.5 137.5,34L172.7,75.1C174.7,77.4 177.8,78.4 180.8,77.6L221.5,67.2C226.5,65.9 231.4,69.6 231.5,74.8L232.7,140.2C232.8,143.7 235,146.7 238.4,147.7C241.8,148.7 245.3,147.5 247.3,144.7L326.3,32.3C329.6,27.6 336.5,27.8 339.6,32.6L353.2,54C362.7,68.9 381,75.9 398,71L454,55C460.2,53.2 465.8,59.1 463.8,65.2L443.6,125.2C437,144.8 446.4,166.2 465.4,174.6L482.9,182.3C488.6,184.8 489.4,192.6 484.3,196.2L375.4,272.7C372.6,274.7 371.3,278.3 372.4,281.6C373.5,284.9 376.4,287.2 379.9,287.3L445.3,288.5C450.5,288.6 454.2,293.5 452.9,298.5L442.5,339.2C441.7,342.2 442.7,345.3 445,347.3L486,382.4C489.5,385.4 489.7,390.8 486.5,394.1L455.4,425.5C446.8,434.2 442.6,446.4 444.1,458.6L447,481.6C447.7,487.2 442.5,491.8 437,490.3L291.8,452.4C282.9,450.1 273.4,453.1 267.4,460.1L250,480.7C246.3,485 239.4,484.3 236.8,479.3L170.6,352.8L170.5,352.8Z" style="fill:rgb(241,85,114);fill-rule:nonzero;"/>
                </g>
            </g>
        </g>
        <g transform="matrix(0.0976562,0,0,0.0976562,1033.54,505.122)">
            <g transform="matrix(1,0,0,1,-256,-256)">
                <path d="M209.7,302.3C194.4,287 174.8,277 153.8,273.4C184.8,147.6 243.8,81.6 304.7,48.3C367.6,14 435,13.2 481.2,21.1C486.2,22 490,25.8 490.9,30.8C498.9,76.9 498.1,144.3 463.7,207.3C430.4,268.2 364.4,327.2 238.6,358.2C235,337.2 225,317.6 209.7,302.3ZM240,486.1L240,374.4C291.4,361.9 333.6,344.8 368,324.6L368,410.3C368,425.5 359.4,439.3 345.9,446.1L251.6,493.3C246.3,496 240,492.1 240,486.1ZM384,410.3L384,314.6C510.9,230.8 519.5,102.5 506.6,28.1C504.6,16.5 495.5,7.4 483.9,5.4C409.5,-7.5 281.3,1.1 197.4,128L101.7,128C80.5,128 61.1,140 51.6,159L4.4,253.3C-3.6,269.3 8,288 25.9,288L136.4,288C159.6,288 181.9,297.2 198.3,313.7C214.7,330.2 224,352.4 224,375.6L224,486.1C224,503.9 242.8,515.5 258.7,507.6L353,460.4C372,450.9 384,431.5 384,410.3ZM137.7,272L25.9,272C20,272 16.1,265.7 18.7,260.4L65.9,166.1C72.7,152.5 86.5,144 101.7,144L187.4,144C167.2,178.4 150.1,220.6 137.6,272L137.7,272ZM155.2,458.7C141.1,472.8 119.4,482.1 95,487.9C70.9,493.6 46.2,495.5 28,495.9C21.2,496.1 16,490.9 16.2,484.1C16.6,465.9 18.5,441.1 24.2,417.1C30,392.7 39.3,371 53.4,356.9C81.5,328.8 127.2,328.8 155.3,356.9C183.4,385 183.4,430.7 155.3,458.8L155.2,458.7ZM166.5,470C200.9,435.6 200.9,379.9 166.5,345.5C132.1,311.1 76.4,311.1 42,345.5C7.7,379.7 1,446 0.1,483.7C-0.3,499.7 12.3,512.3 28.3,511.9C66,511 132.3,504.3 166.5,470ZM408,144C408,165.943 389.943,184 368,184C346.057,184 328,165.943 328,144C328,122.057 346.057,104 368,104C389.943,104 408,122.057 408,144ZM368,88C337.279,88 312,113.279 312,144C312,174.721 337.279,200 368,200C398.721,200 424,174.721 424,144C424,113.279 398.721,88 368,88Z" style="fill:rgb(198,105,221);fill-rule:nonzero;"/>
            </g>
        </g>
        <g transform="matrix(0.0690534,-0.0690534,0.0690534,0.0690534,519.691,113.877)">
            <g transform="matrix(1,0,0,1,-288,-256)">
                <clipPath id="_clip7">
                    <rect x="0" y="0" width="576" height="512"/>
                </clipPath>
                <g clip-path="url(#_clip7)">
                    <path d="M381.3,161.2C374.4,177.6 364.7,195.4 353.8,213.1C332,248.5 306.2,282.2 290.3,302C289,303.6 286.9,303.6 285.7,302C269.8,282.2 244,248.4 222.2,213.1C211.3,195.4 201.6,177.6 194.7,161.2C187.7,144.5 184,130.5 184,120C184,62.6 230.6,16 288,16C345.4,16 392,62.6 392,120C392,130.5 388.4,144.5 381.3,161.2ZM302.8,312C334.9,271.9 408,174.6 408,120C408,53.7 354.3,0 288,0C221.7,0 168,53.7 168,120C168,174.6 241.1,271.9 273.2,312C280.9,321.6 295.2,321.6 302.8,312ZM421.1,190L538.5,147.3C548.9,143.5 560,151.2 560,162.3L560,423.2C560,429.9 555.8,435.9 549.5,438.2L400,492.6L400,296C400,291.6 396.4,288 392,288C387.6,288 384,291.6 384,296L384,493.2L192,434.1L192,296C192,291.6 188.4,288 184,288C179.6,288 176,291.6 176,296L176,434.4L37.5,484.8C27,488.6 16,480.8 16,469.7L16,208.8C16,202.1 20.2,196.1 26.5,193.8L140.7,152.3C139.3,147.1 138.1,141.8 137.3,136.5L21.1,178.7C8.4,183.3 0,195.4 0,208.8L0,469.7C0,491.9 22.1,507.4 42.9,499.8L184.2,448.4L389.6,511.6C391.3,512.1 393,512.1 394.7,511.5L554.9,453.2C567.5,448.6 576,436.6 576,423.1L576,162.3C576,140.1 553.9,124.6 533.1,132.2L429.6,169.8C428.3,173.2 427,176.5 425.6,179.8C424.2,183.1 422.7,186.5 421.1,189.9L421.1,190ZM256,112C256,94.445 270.445,80 288,80C305.555,80 320,94.445 320,112C320,129.555 305.555,144 288,144C270.445,144 256,129.555 256,112ZM336,112C336,85.668 314.332,64 288,64C261.668,64 240,85.668 240,112C240,138.332 261.668,160 288,160C314.332,160 336,138.332 336,112Z" style="fill:rgb(241,85,114);fill-rule:nonzero;"/>
                </g>
            </g>
        </g>
        <g transform="matrix(0.0690534,-0.0690534,0.0690534,0.0690534,950.352,45.2548)">
            <g transform="matrix(1,0,0,1,-256,-256)">
                <clipPath id="_clip8">
                    <rect x="0" y="0" width="512" height="512"/>
                </clipPath>
                <g clip-path="url(#_clip8)">
                    <path d="M172.2,148.1C176.4,149.3 179.9,152.2 182,156C184.1,159.8 184.4,164.4 183,168.5L152.8,259C145.8,280 154.1,303.1 172.9,314.9L259.1,368.8C265.1,372.6 268,379.9 266,386.8L240.6,475.6C238.2,484.1 243.1,493 251.6,495.4C260.1,497.8 269,492.9 271.4,484.4L296.8,395.6C302.7,375 294.2,353 276.1,341.7L228.2,311.7C221.7,307.6 219,299.5 221.8,292.3L251.8,215C254.1,209.1 259.6,205.1 266,204.8C272.4,204.5 278.2,208 281.1,213.6L297,245.3C305.1,261.6 321.8,271.8 339.9,271.8L384,271.8C392.8,271.8 400,264.6 400,255.8C400,247 392.8,239.8 384,239.8L339.8,239.8C333.7,239.8 328.2,236.4 325.5,231L292.6,165.3C286.6,153.3 275.8,144.3 262.9,140.6L172.2,114.7C165.6,112.8 158.8,111.9 151.9,111.9C132.3,111.9 113.6,119.7 99.8,133.5L68.7,164.7C62.5,170.9 62.5,181.1 68.7,187.3C74.9,193.5 85.1,193.5 91.3,187.3L122.4,156.2C130.2,148.4 140.8,144 151.9,144C155.8,144 159.6,144.5 163.4,145.6L172.2,148.1ZM57.4,153.4L88.5,122.3C105.3,105.5 128.1,96 151.9,96C160.2,96 168.5,97.2 176.6,99.5L267.3,125.4C284.5,130.3 298.9,142.3 307,158.3L339.8,224L384,224C401.7,224 416,238.3 416,256C416,273.7 401.7,288 384,288L339.8,288C315.6,288 293.4,274.3 282.6,252.6L276.4,240.2L266.7,220.9L258.8,241L236.6,298.1L284.5,328.1C308.7,343.2 320,372.5 312.1,400L286.7,488.8C281.8,505.8 264.1,515.6 247.1,510.8C230.1,506 220.3,488.2 225.1,471.2L250.5,382.4L164.3,328.5C139.2,312.8 128.2,282 137.5,254L162.6,178.7L167.7,163.5L159,161C156.8,160.4 154.4,160 152.1,160L151.9,160C145.1,160 138.5,162.7 133.7,167.5L102.6,198.6C90.1,211.1 69.8,211.1 57.3,198.6C44.8,186.1 44.8,165.8 57.3,153.3L57.4,153.4ZM272,80C289.555,80 304,65.555 304,48C304,30.445 289.555,16 272,16C254.445,16 240,30.445 240,48C240,65.555 254.445,80 272,80ZM224,48C224,21.668 245.668,0 272,0C298.332,-0 320,21.668 320,48C320,74.332 298.332,96 272,96C245.668,96 224,74.332 224,48ZM111.3,314.8C114.2,321 117.7,326.9 121.9,332.4L112.7,357.6L108.8,368L32,368C23.2,368 16,375.2 16,384C16,392.8 23.2,400 32,400L97.6,400C117.7,400 135.7,387.4 142.7,368.5L147.4,355.6L161.3,364.3L157.7,374C148.5,399.2 124.5,416 97.6,416L32,416C14.3,416 0,401.7 0,384C0,366.3 14.3,352 32,352L97.6,352L111.3,314.8ZM473.5,449.6C459.8,487.7 443.8,496 432,496C420.2,496 404.2,487.7 390.5,449.6C380.3,421.2 372.7,379.2 369.6,320L353.6,320C360.9,460.7 393.3,512 432,512C476.2,512 512,445.4 512,256C512,66.6 476.2,0 432,0C393.2,0 360.9,51.3 353.6,192L369.6,192C372.7,132.8 380.3,90.8 390.5,62.4C404.2,24.3 420.2,16 432,16C443.8,16 459.8,24.3 473.5,62.4C487.1,100.1 496,161.9 496,256C496,350.1 487.1,411.9 473.5,449.6Z" style="fill:rgb(198,105,221);fill-rule:nonzero;"/>
                </g>
            </g>
        </g>
        <g transform="matrix(0.0690534,-0.0690534,0.0690534,0.0690534,588.313,588.313)">
            <g transform="matrix(1,0,0,1,-256,-256)">
                <path d="M465.7,172.6C448.7,199.8 428.6,224.9 416,239.7C403.4,224.9 383.3,199.9 366.3,172.6C348.4,144 336,116.2 336,96C336,51.8 371.8,16 416,16C460.2,16 496,51.8 496,96C496,116.2 483.6,144 465.7,172.6ZM427.4,251C452.9,221.1 512,146.2 512,96C512,43 469,0 416,0C363,0 320,43 320,96C320,140.9 367.2,205.4 395.4,240L328,240C288.2,240 256,272.2 256,312C256,351.8 288.2,384 328,384L440,384C470.9,384 496,409.1 496,440C496,470.9 470.9,496 440,496L160,496C155.6,496 152,499.6 152,504C152,508.4 155.6,512 160,512L440,512C479.8,512 512,479.8 512,440C512,400.2 479.8,368 440,368L328,368C297.1,368 272,342.9 272,312C272,281.1 297.1,256 328,256L412.9,256C418,257.1 423.6,255.4 427.4,251ZM145.6,426C128.5,451.8 108.4,475.1 96,488.7C83.6,475.1 63.5,451.8 46.4,426C28.5,398.9 16,372.1 16,352C16,307.8 51.8,272 96,272C140.2,272 176,307.8 176,352C176,372.1 163.5,398.9 145.6,426ZM107,500.4C132.2,473 192,402.5 192,352C192,299 149,256 96,256C43,256 0,299 0,352C0,402.5 59.8,473 85,500.4C91,506.9 101,506.9 106.9,500.4L107,500.4ZM416,80C424.777,80 432,87.223 432,96C432,104.777 424.777,112 416,112C407.223,112 400,104.777 400,96C400,87.223 407.223,80 416,80ZM416,128C433.555,128 448,113.555 448,96C448,78.445 433.555,64 416,64C398.445,64 384,78.445 384,96C384,113.555 398.445,128 416,128ZM80,352C80,343.223 87.223,336 96,336C104.777,336 112,343.223 112,352C112,360.777 104.777,368 96,368C87.223,368 80,360.777 80,352ZM128,352C128,334.445 113.555,320 96,320C78.445,320 64,334.445 64,352C64,369.555 78.445,384 96,384C113.555,384 128,369.555 128,352Z" style="fill:rgb(241,85,114);fill-rule:nonzero;"/>
            </g>
        </g>
        <g transform="matrix(0.0690534,-0.0690534,0.0690534,0.0690534,566.216,429.391)">
            <g transform="matrix(1,0,0,1,-320,-256)">
                <path d="M560,144C595.109,144 624,115.109 624,80C624,44.891 595.109,16 560,16C524.891,16 496,44.891 496,80C496,115.109 524.891,144 560,144ZM560,0C603.887,-0 640,36.113 640,80C640,123.887 603.887,160 560,160C516.113,160 480,123.887 480,80C480,36.113 516.113,0 560,0ZM412.7,281.7L460.9,202.7C465,196.1 472.2,192 480,192C487.8,192 495,196.1 499.1,202.7L631.1,419C636.9,428.6 640,439.6 640,450.8C640,484.6 612.6,511.9 578.9,511.9L55.9,511.9C25,512 0,487 0,456.1C0,445.6 3,435.3 8.6,426.4L225.2,81C231.8,70.4 243.5,64 256,64C268.5,64 280.1,70.4 286.8,81L412.8,281.7L412.7,281.7ZM422.2,296.8L503.4,426.3C509,435.2 512,445.5 512,456C512,471.6 505.6,485.8 495.2,495.9L578.8,495.9C603.7,495.9 623.9,475.7 623.9,450.8C623.9,442.5 621.6,434.4 617.3,427.3L485.4,211C484.2,209.1 482.2,208 480,208C477.8,208 475.7,209.2 474.6,211L422.2,296.8ZM456.1,496C478.1,496 496,478.1 496,456.1C496,448.6 493.9,441.2 489.9,434.9L273.2,89.5C269.5,83.6 263,80 256,80C249,80 242.5,83.6 238.8,89.5L22.1,434.9C18.1,441.3 16,448.6 16,456.1C16,478.1 33.9,496 55.9,496L456.1,496Z" style="fill:rgb(198,105,221);fill-rule:nonzero;"/>
            </g>
        </g>
        <g transform="matrix(0.0690534,-0.0690534,0.0690534,0.0690534,769.332,588.313)">
            <g transform="matrix(1,0,0,1,-224,-256)">
                <path d="M0,56C0,25.1 25.1,0 56,0L408,0C430.1,0 448,17.9 448,40L448,376C448,395.4 434.3,411.5 416,415.2L416,496L440,496C444.4,496 448,499.6 448,504C448,508.4 444.4,512 440,512L56,512C25.1,512 0,486.9 0,456L0,56ZM56,416C33.9,416 16,433.9 16,456C16,478.1 33.9,496 56,496L400,496L400,416L56,416ZM16,416.8C26.2,406.4 40.3,400 56,400L408,400C421.3,400 432,389.3 432,376L432,40C432,26.7 421.3,16 408,16L56,16C33.9,16 16,33.9 16,56L16,416.8ZM240,328C247.8,328 259.8,320.6 270.8,297.4C280.4,277 287,248.5 287.9,216L192.1,216C193,248.4 199.6,277 209.2,297.4C220.2,320.7 232.1,328 240,328ZM192.1,200L287.9,200C287,167.6 280.4,139 270.8,118.6C259.8,95.4 247.8,88 240,88C232.2,88 220.2,95.4 209.2,118.6C199.6,139 193,167.5 192.1,200ZM274.1,323.1C321.3,309.1 356.4,266.9 359.7,216L303.9,216C302.7,261.1 291.1,300.3 274.1,323.1ZM303.9,200L359.7,200C356.3,149.1 321.3,106.9 274.1,92.9C291.1,115.7 302.6,154.9 303.9,200ZM205.9,92.9C158.7,106.9 123.6,149.1 120.3,200L176.1,200C177.3,154.9 188.9,115.7 205.9,92.9ZM205.9,323.1C188.9,300.3 177.4,261.1 176.1,216L120.3,216C123.6,266.9 158.7,309.1 205.9,323.1ZM240,344C165.393,344 104,282.607 104,208C104,133.393 165.393,72 240,72C314.607,72 376,133.393 376,208C376,282.607 314.607,344 240,344Z" style="fill:rgb(198,105,221);fill-rule:nonzero;"/>
            </g>
        </g>
        <g transform="matrix(0.0690534,-0.0690534,0.0690534,0.0690534,1131.37,226.274)">
            <g transform="matrix(1,0,0,1,-256,-256)">
                <clipPath id="_clip9">
                    <rect x="0" y="0" width="512" height="512"/>
                </clipPath>
                <g clip-path="url(#_clip9)">
                    <path d="M496,256C496,242.2 494.8,228.7 492.6,215.5L427.4,202.5C423.3,201.7 419.1,203.7 417.2,207.5C409.6,222.6 392.1,229.9 376,224.5L362,219.8C357.2,218.2 352,219.5 348.4,223C347.8,223.6 347.8,224.5 348.4,225.1L381.9,258.6C388.4,265.1 392.1,274 392.1,283.2C392.1,299.2 381.2,313.1 365.8,316.9L360.5,318.2C360.3,318.2 360.2,318.4 360.2,318.6L360.2,330.7C360.2,346.3 355.1,361.4 345.8,373.9L320,408C312.4,418.1 300.6,424 288,424C265.9,424 248,406.1 248,384L248,336C248,331.6 244.4,328 240,328L208,328C177.1,328 152,302.9 152,272L152,244C152,228.9 159.1,214.7 171.2,205.6L210.6,176.1C217.6,170.9 226.1,168 234.8,168C239.1,168 243.4,168.7 247.5,170.1L279.5,180.8C285.3,182.7 291.5,183 297.4,181.5L332.8,172.7C339.4,171 344.1,165.1 344.1,158.3C344.1,152.7 340.9,147.5 335.9,145L306.7,130.4C306.1,130.1 305.4,130.2 304.9,130.7L301,134.6C294.9,140.7 286.6,144.1 277.9,144.1C272.8,144.1 267.8,142.9 263.3,140.7L248,132.9C244.6,131.2 240.5,132.1 238.2,135.1L224.6,152.1C216.1,162.7 200.3,163.6 190.7,154C186.4,149.7 184,143.9 184,137.9L184,96.5C184,92.3 182.9,88.2 180.8,84.6L154.5,38.5C72.7,76.7 16,159.7 16,256C16,388.5 123.5,496 256,496C388.5,496 496,388.5 496,256ZM489.1,198.5C463.3,93.7 368.7,16 256,16C225.4,16 196.2,21.7 169.3,32.1L194.7,76.6C198.2,82.6 200,89.5 200,96.4L200,137.8C200,139.6 200.7,141.3 202,142.6C204.9,145.5 209.6,145.2 212.1,142L225.7,125C232.8,116.2 245.1,113.5 255.2,118.5L270.4,126.1C272.7,127.3 275.2,127.9 277.8,127.9C282.2,127.9 286.4,126.2 289.5,123L293.4,119.1C298.7,113.8 306.9,112.4 313.6,115.8L342.8,130.4C353.3,135.6 359.9,146.3 359.9,158C359.9,172.2 350.3,184.5 336.5,188L301.1,196.8C292.2,199 282.9,198.7 274.3,195.8L242.3,185.1C239.8,184.3 237.2,183.9 234.6,183.9C229.3,183.9 224.2,185.6 220,188.8L180.6,218.3C172.5,224.3 167.8,233.8 167.8,243.9L167.8,271.9C167.8,294 185.7,311.9 207.8,311.9L239.8,311.9C253.1,311.9 263.8,322.6 263.8,335.9L263.8,383.9C263.8,397.2 274.5,407.9 287.8,407.9C295.4,407.9 302.5,404.3 307,398.3L332.6,364.2C339.9,354.5 343.8,342.7 343.8,330.6L343.8,318.6C343.8,311.1 348.9,304.5 356.3,302.6L361.6,301.3C370,299.2 375.8,291.7 375.8,283.1C375.8,278.1 373.8,273.3 370.3,269.8L337,236.3C330.2,229.5 330.2,218.4 337,211.6C344.8,203.8 356.5,201 367,204.5L381.1,209.2C389.6,212 398.9,208.2 402.9,200.2C408,190 419.3,184.5 430.5,186.7L489,198.4L489.1,198.5ZM0,256C-0,115.563 115.563,0 256,0C396.437,-0 512,115.563 512,256C512,396.437 396.437,512 256,512C115.563,512 0,396.437 0,256Z" style="fill:rgb(47,190,238);fill-rule:nonzero;"/>
                </g>
            </g>
        </g>
        <g transform="matrix(0.0690534,-0.0690534,0.0690534,0.0690534,429.971,385.616)">
            <g transform="matrix(1,0,0,1,-256,-256)">
                <clipPath id="_clip10">
                    <rect x="0" y="0" width="512" height="512"/>
                </clipPath>
                <g clip-path="url(#_clip10)">
                    <path d="M496,256C496,151.1 428.7,61.9 334.9,29.3L315.5,100.6C312.5,111.8 303.6,120.4 292.4,123.2L277,127C265.9,129.8 261.2,143 268.1,152.1L284.2,173.6C292.3,184.5 292.8,199.3 285.2,210.6L274.5,226.7C265.6,240 250.6,248 234.6,248L232.3,248C221.6,248 213.9,258.3 217,268.6L223,288.5C228.9,308.2 214.2,328 193.6,328C179.8,328 167.2,320.2 161.1,307.9L151.8,289.4C146.9,279.6 133.9,277.5 126.2,285.2L110.6,300.8C103.2,308.2 92.6,311.5 82.2,309.7L19.7,298.3C39.7,410.7 137.9,496 256,496C310.9,496 361.6,477.5 402,446.5L378.7,426.4C372.1,420.7 362.9,419 354.7,422.1L353.8,422.4C330.1,431.2 303.6,420.1 293.3,397L287.8,384.6C277.6,361.9 286.5,335.2 308.2,323.1L344.3,303C345.5,302.4 346.4,301.4 347.1,300.3L353.2,290.8C360.7,279.1 373.6,272 387.5,272C401.4,272 414.3,279.1 421.8,290.8L423.8,293.9C425.6,296.8 429.1,298.1 432.4,297.2L447.1,293.1C455.5,290.7 464.6,292 472.1,296.5L490.4,307.5C494,290.9 495.9,273.8 495.9,256.1L496,256ZM463.9,310.2C460.1,307.9 455.6,307.3 451.4,308.5L436.7,312.6C426.6,315.4 415.9,311.3 410.3,302.5L408.3,299.4C403.8,292.3 395.9,288 387.5,288C379.1,288 371.2,292.3 366.7,299.4L360.6,308.9C358.5,312.2 355.5,315 352.1,316.9L315.9,337.1C301.4,345.2 295.5,363 302.3,378.1L307.8,390.5C314.7,405.9 332.4,413.3 348.2,407.4L349.1,407.1C362.8,402 378.1,404.8 389.2,414.3L414.6,436.2C448.2,406.6 473.5,367.7 486.4,323.6L464,310.2L463.9,310.2ZM319.6,24.5C299.3,19 278,16 256,16C123.5,16 16,123.5 16,256C16,264.6 16.5,273.2 17.3,281.6L85,293.9C90.2,294.8 95.5,293.2 99.2,289.5L114.8,273.9C130.2,258.5 156.3,262.7 166,282.2L175.3,300.7C178.7,307.6 185.8,311.9 193.5,311.9C203.3,311.9 210.4,302.4 207.6,293L201.6,273.1C195.4,252.6 210.8,231.9 232.3,231.9L234.6,231.9C245.3,231.9 255.3,226.6 261.2,217.7L271.9,201.6C275.7,196 275.5,188.6 271.4,183.1L255.3,161.6C241.6,143.3 250.9,116.9 273.1,111.4L288.4,107.6C294,106.2 298.4,101.9 300,96.3L319.6,24.5ZM0,256C-0,115.563 115.563,0 256,0C396.437,-0 512,115.563 512,256C512,396.437 396.437,512 256,512C115.563,512 0,396.437 0,256ZM161.9,344.2L193.9,352.2C198.2,353.3 200.8,357.6 199.7,361.9C198.6,366.2 194.3,368.8 190,367.7L158,359.7C153.7,358.6 151.1,354.3 152.2,350C153.3,345.7 157.6,343.1 161.9,344.2ZM250,339.7C245.7,338.6 243.1,334.3 244.2,330L252.2,298C253.3,293.7 257.6,291.1 261.9,292.2C266.2,293.3 268.8,297.6 267.7,301.9L259.7,333.9C258.6,338.2 254.3,340.8 250,339.7ZM343.1,131.5L327.1,163.5C325.1,167.5 320.3,169.1 316.4,167.1C312.5,165.1 310.8,160.3 312.8,156.4L328.8,124.4C330.8,120.4 335.6,118.8 339.5,120.8C343.4,122.8 345.1,127.6 343.1,131.5Z" style="fill:rgb(47,190,238);fill-rule:nonzero;"/>
                </g>
            </g>
        </g>
        <g transform="matrix(0.0690534,-0.0690534,0.0690534,0.0690534,202.697,66.832)">
            <g transform="matrix(1,0,0,1,-256,-256)">
                <path d="M256,496C123.5,496 16,388.5 16,256C16,123.5 123.5,16 256,16C270.9,16 285.5,17.4 299.6,20L228.8,67.2C220.8,72.5 216,81.6 216,91.2L216,99.8C216,111 225.1,120.1 236.3,120.1C240.3,120.1 244.2,118.9 247.5,116.7L289.3,88.8C290,88.3 290.8,88.1 291.7,88.1L292.7,88.1C294.5,88.1 296,89.6 296,91.4C296,92.3 295.7,93.1 295,93.7L275.1,113.6C270.2,118.5 264.2,122.2 257.6,124.4L231.1,133.2C222.1,136.2 216,144.7 216,154.2C216,155.8 215.4,157.4 214.2,158.5L196.3,176.4C188.4,184.3 184,194.9 184,206.1L184,210.4C184,231.3 201.2,248.1 221.9,248.1C235.8,248.1 248.8,240.2 255.1,227.7L259.1,219.6C260.2,217.5 262.4,216.1 264.7,216.1C266.7,216.1 268.6,217 269.7,218.6L286,240.3C289.7,245.2 295.4,248 301.5,248C315.9,248 325.2,232.9 318.8,220L316.6,215.7C315.2,212.9 316.1,209.4 318.7,207.6L351.7,185.6C355.8,182.9 359.1,179.1 361.3,174.7C363.4,170.6 367.6,167.9 372.3,167.9L400,167.9C404.4,167.9 408,171.5 408,175.9C408,180.3 404.4,183.9 400,183.9L379.3,183.9C369.9,183.9 361,187.6 354.3,194.2L349.6,198.9C346,202.5 343.9,207.4 343.9,212.6C343.9,223.3 352.5,231.9 363.2,231.9L374.5,231.9C378.4,231.9 382.1,233.4 384.8,236.2L391.3,242.7C391.6,243 391.8,243.4 391.8,243.9C391.8,244.4 391.6,244.8 391.3,245.1L383.8,252.6C378.7,257.7 375.8,264.7 375.8,271.9C375.8,279.1 378.7,286.1 383.8,291.2L402.1,309.5C414.1,321.4 430,328 446.6,328L485,328C478.2,349.7 468.3,370.1 456,388.7L456,374.6C456,357.7 442.3,344 425.4,344C421.5,344 417.8,342.5 415.1,339.7L401.7,326.3C392.5,317.1 380.1,312 367.2,312C359.4,312 351.8,309.2 345.8,304.1L319.2,281.3C306.2,270.1 289.5,264 272.3,264L251.4,264C237.2,264 223.3,268.2 211.5,276.1L184.1,294.4C164.1,307.8 152,330.2 152,354.3L152,357.5C152,376.6 159.6,394.9 173.1,408.4L189.1,424.4C199.1,434.4 212.6,440 226.8,440C247.4,440 264.1,456.7 264.1,477.3L264.1,495.9C261.4,496 258.8,496 256.1,496L256,496ZM280,477.3C280,447.9 256.2,424 226.7,424C216.8,424 207.3,420.1 200.4,413.1L184.4,397.1C173.9,386.6 168,372.4 168,357.5L168,354.3C168,335.6 177.4,318.1 192.9,307.7L220.3,289.4C229.5,283.3 240.3,280 251.4,280L272.3,280C285.7,280 298.6,284.8 308.7,293.5L335.3,316.3C344.1,323.9 355.4,328.1 367.1,328.1C375.8,328.1 384.1,331.6 390.3,337.7L403.7,351C409.4,356.7 417.2,360 425.4,360C433.5,360 440,366.6 440,374.6L440,410.1C400.8,456.9 344.1,488.5 280,494.8L280,477.3ZM256,512C336.8,512 408.9,474.5 455.9,416L456,416L456,415.8C491,372 512,316.4 512,256C512,114.6 397.4,0 256,0C114.6,0 0,114.6 0,256C0,397.4 114.6,512 256,512ZM446.6,312C434.2,312 422.4,307.1 413.6,298.3L395.3,280C393.2,277.9 392,275 392,272C392,269 393.2,266.1 395.3,264L402.8,256.5C406.1,253.2 408,248.7 408,244C408,239.3 406.1,234.8 402.8,231.5L396.3,225C390.6,219.3 382.8,216 374.6,216L363.3,216C361.5,216 360,214.5 360,212.7C360,211.8 360.3,211 361,210.4L365.7,205.7C369.3,202.1 374.2,200 379.4,200L400,200C413.3,200 424,189.3 424,176C424,162.7 413.3,152 400,152L372.5,152C361.8,152 352,158 347.2,167.6C346.2,169.5 344.8,171.1 343,172.3L310,194.3C300.6,200.5 297.4,212.8 302.4,222.8L304.6,227.1C305.7,229.3 304.1,231.9 301.6,231.9C300.6,231.9 299.6,231.4 298.9,230.6L282.6,208.9C278.4,203.3 271.8,200 264.8,200C256.3,200 248.6,204.8 244.8,212.3L240.8,220.4C237.3,227.4 229.9,232 221.9,232C209.8,232 200,222.2 200,210.3L200,206C200,199.1 202.7,192.5 207.6,187.7L225.5,169.8C229.6,165.7 232,160 232,154.2C232,151.6 233.7,149.2 236.2,148.4L262.7,139.6C271.7,136.6 279.8,131.6 286.5,124.9L306.3,105C309.9,101.4 312,96.5 312,91.3C312,80.6 303.4,72 292.7,72L291.7,72C287.7,72 283.8,73.2 280.5,75.4L238.7,103.3C238,103.8 237.2,104 236.3,104C233.9,104 232,102.1 232,99.7L232,91.2C232,86.9 234.1,82.9 237.7,80.5L321,24.9C422,53.3 496,146 496,256C496,275.3 493.7,294 489.4,312L446.6,312ZM181.6,117.7C184.7,114.6 184.7,109.5 181.6,106.4C178.5,103.3 173.4,103.3 170.3,106.4L138.3,138.4C135.2,141.5 135.2,146.6 138.3,149.7C141.4,152.8 146.5,152.8 149.6,149.7L181.6,117.7Z" style="fill:rgb(47,190,238);fill-rule:nonzero;"/>
            </g>
        </g>
        <g transform="matrix(0.0690534,-0.0690534,0.0690534,0.0690534,905.097,633.568)">
            <g transform="matrix(1,0,0,1,-256,-256)">
                <path d="M256,16C387.66,16 496,124.34 496,256C496,387.66 387.66,496 256,496C124.34,496 16,387.66 16,256C16,124.34 124.34,16 256,16ZM256,512C396.437,512 512,396.437 512,256C512,115.563 396.437,0 256,0C115.563,0 -0,115.563 0,256C0,396.437 115.563,512 256,512ZM270.7,216.2C268.2,215.6 265.5,216.2 263.6,217.9L238.4,239.4C234.6,242.6 229.6,243.9 224.8,242.9L224.5,242.8C222.6,242.4 220.9,241.3 219.7,239.8L215.7,234.5C207,222.9 193.3,216 178.7,216C164.1,216 150.4,222.8 141.7,234.5L136.4,241.5C135.6,242.5 134.6,243.4 133.4,243.9L98.2,260.7C73.6,272.4 63.6,302.2 76.3,326.4L79.6,332.6C90.4,353.2 114.4,363 136.6,356L159.5,348.7L208.8,365.7L236.6,383.7C244.9,389.1 254.7,391.9 264.6,391.9C280.5,391.9 295.5,384.6 305.3,372.1L317.4,356.7C324.3,347.9 328.1,337 328.1,325.8C328.1,314.6 324.3,303.7 317.4,294.9L299.5,272C295.2,266.5 291.7,260.4 289.2,253.9L276.4,221.2C275.5,218.8 273.4,217 270.9,216.4L270.7,216.2ZM178.7,232C188.2,232 197.2,236.5 202.9,244.1L206.9,249.4C210.4,254.1 215.5,257.3 221.3,258.5L221.6,258.6C231.3,260.6 241.3,258 248.8,251.6L265.5,237.4L274.2,259.7C277.3,267.7 281.6,275.1 286.8,281.9L304.7,304.8C309.4,310.8 312,318.2 312,325.9C312,333.6 309.4,341 304.7,347L292.6,362.4C285.8,371 275.5,376.1 264.5,376.1C257.6,376.1 250.9,374.1 245.2,370.4L216.5,351.9C216,351.6 215.4,351.3 214.8,351.1L162.1,332.9C160.5,332.3 158.7,332.3 157.1,332.8L131.7,340.9C116.9,345.6 100.9,339 93.7,325.3L90.4,319.1C81.9,303 88.6,283.1 105,275.3L140.3,258.5C143.8,256.8 146.9,254.3 149.2,251.2L154.5,244.2C160.2,236.6 169.2,232.1 178.7,232.1L178.7,232ZM273.8,142.5C264.3,133 250.8,128.9 237.7,131.6L199.2,139.3C183.9,142.4 181.6,163.3 195.8,169.6L238.6,188.6C243.7,190.9 249.2,192 254.8,192L284.7,192C299,192 306.1,174.8 296,164.7L273.8,142.5ZM240.8,147.3C248.7,145.7 256.8,148.2 262.5,153.9L284.7,176L254.8,176C251.4,176 248.1,175.3 245.1,173.9L202.3,154.9L240.8,147.2L240.8,147.3ZM256,432C256,436.4 259.6,440 264,440L280,440C284.4,440 288,436.4 288,432C288,427.6 284.4,424 280,424L264,424C259.6,424 256,427.6 256,432ZM423.6,309.5C422.2,305.3 417.7,303 413.5,304.4C409.3,305.8 407,310.3 408.4,314.5L416.4,338.5C417.8,342.7 422.3,345 426.5,343.6C430.7,342.2 433,337.7 431.6,333.5L423.6,309.5ZM373.7,413.7L405.7,381.7C408.8,378.6 408.8,373.5 405.7,370.4C402.6,367.3 397.5,367.3 394.4,370.4L362.4,402.4C359.3,405.5 359.3,410.6 362.4,413.7C365.5,416.8 370.6,416.8 373.7,413.7Z" style="fill:rgb(81,169,246);fill-rule:nonzero;"/>
            </g>
        </g>
        <g transform="matrix(0.0690534,-0.0690534,0.0690534,0.0690534,1176.63,543.058)">
            <g transform="matrix(1,0,0,1,-224,-256)">
                <path d="M432,224C432,279.9 410,330.6 374.1,368L395.6,368C428.3,329.1 448,278.8 448,224C448,100.3 347.7,0 224,0C100.3,0 0,100.3 0,224C0,278.8 19.7,329.1 52.4,368L73.9,368C38,330.6 16,279.9 16,224C16,109.1 109.1,16 224,16C338.9,16 432,109.1 432,224ZM240,96C248.777,96 256,88.777 256,80C256,71.223 248.777,64 240,64C231.223,64 224,71.223 224,80C224,88.777 231.223,96 240,96ZM229.7,162.3C226.6,159.2 221.5,159.2 218.4,162.3L146.4,234.3C143.3,237.4 143.3,242.5 146.4,245.6C149.5,248.7 154.6,248.7 157.7,245.6L216,187.3L216,228.7L138.3,306.4C135.2,309.5 135.2,314.6 138.3,317.7C141.4,320.8 146.5,320.8 149.6,317.7L216,251.3L216,368L232,368L232,251.3L298.3,317.6C301.4,320.7 306.5,320.7 309.6,317.6C312.7,314.5 312.7,309.4 309.6,306.3L232,228.7L232,187.3L290.3,245.6C293.4,248.7 298.5,248.7 301.6,245.6C304.7,242.5 304.7,237.4 301.6,234.3L229.6,162.3L229.7,162.3ZM352,176C352,167.223 344.777,160 336,160C327.223,160 320,167.223 320,176C320,184.777 327.223,192 336,192C344.777,192 352,184.777 352,176ZM80,256C88.777,256 96,248.777 96,240C96,231.223 88.777,224 80,224C71.223,224 64,231.223 64,240C64,248.777 71.223,256 80,256ZM73.3,403.6L28.4,470.9C25.5,475.2 24,480.3 24,485.6C24,500.2 35.8,512 50.4,512L397.6,512C412.2,512 424,500.2 424,485.6C424,480.4 422.5,475.3 419.6,470.9L374.7,403.5C373.2,401.3 370.7,399.9 368,399.9L80,399.9C77.3,399.9 74.8,401.2 73.3,403.5L73.3,403.6ZM84.3,416L363.7,416L406.2,479.8C407.3,481.5 408,483.5 408,485.6C408,491.4 403.3,496 397.6,496L50.4,496C44.6,496 40,491.3 40,485.6C40,483.5 40.6,481.5 41.8,479.8L84.3,416Z" style="fill:rgb(47,190,238);fill-rule:nonzero;"/>
            </g>
        </g>
        <g transform="matrix(0.0690534,-0.0690534,0.0690534,0.0690534,882.307,475.338)">
            <g transform="matrix(1,0,0,1,-224,-256)">
                <path d="M34.3,354.3C31.2,357.4 31.2,362.5 34.3,365.6C37.4,368.7 42.5,368.7 45.6,365.6L61,350.3C104.5,390.7 160.5,409.9 216,407.9L216,496L72,496C67.6,496 64,499.6 64,504C64,508.4 67.6,512 72,512L376,512C380.4,512 384,508.4 384,504C384,499.6 380.4,496 376,496L232,496L232,406.7C279,401.5 324.7,380.8 360.7,344.8C443.2,262.3 445,129.8 366.3,45.1L381.7,29.7C384.8,26.6 384.8,21.5 381.7,18.4C378.6,15.3 373.5,15.3 370.4,18.4L349.4,39.3C346.3,42.4 346.3,47.5 349.4,50.6C427.5,128.7 427.5,255.3 349.4,333.4C271.3,411.5 144.7,411.5 66.6,333.4C63.5,330.3 58.4,330.3 55.3,333.4L34.3,354.3ZM64,192C64,113.004 129.004,48 208,48C286.996,48 352,113.004 352,192C352,270.996 286.996,336 208,336C129.004,336 64,270.996 64,192ZM368,192C368,104.227 295.773,32 208,32C120.227,32 48,104.227 48,192C48,279.773 120.227,352 208,352C295.773,352 368,279.773 368,192Z" style="fill:rgb(92,193,104);fill-rule:nonzero;"/>
            </g>
        </g>
        <g transform="matrix(0.0690534,-0.0690534,0.0690534,0.0690534,842.164,334.462)">
            <g transform="matrix(1,0,0,1,-256,-256)">
                <path d="M336,464C336,481.7 321.7,496 304,496L208,496C190.3,496 176,481.7 176,464L176,96C176,51.8 211.8,16 256,16C300.2,16 336,51.8 336,96L336,464ZM352,352L352,96C352,43 309,0 256,0C203,0 160,43 160,96L160,224L112,224C103.2,224 96,216.8 96,208L96,144C96,117.5 74.5,96 48,96C21.5,96 0,117.5 0,144L0,208C0,269.9 50.1,320 112,320L160,320L160,464C160,490.5 181.5,512 208,512L304,512C330.5,512 352,490.5 352,464L352,448L400,448C461.9,448 512,397.9 512,336L512,272C512,245.5 490.5,224 464,224C437.5,224 416,245.5 416,272L416,336C416,344.8 408.8,352 400,352L352,352ZM352,368L400,368C417.7,368 432,353.7 432,336L432,272C432,254.3 446.3,240 464,240C481.7,240 496,254.3 496,272L496,336C496,389 453,432 400,432L352,432L352,368ZM112,304C59,304 16,261 16,208L16,144C16,126.3 30.3,112 48,112C65.7,112 80,126.3 80,144L80,208C80,225.7 94.3,240 112,240L160,240L160,304L112,304ZM256,144C256,135.223 248.777,128 240,128C231.223,128 224,135.223 224,144C224,152.777 231.223,160 240,160C248.777,160 256,152.777 256,144ZM272,384C280.777,384 288,376.777 288,368C288,359.223 280.777,352 272,352C263.223,352 256,359.223 256,368C256,376.777 263.223,384 272,384Z" style="fill:rgb(92,193,104);fill-rule:nonzero;"/>
            </g>
        </g>
        <g transform="matrix(0.0690534,-0.0690534,0.0690534,0.0690534,972.929,203.697)">
            <g transform="matrix(1,0,0,1,-256,-256)">
                <clipPath id="_clip11">
                    <rect x="0" y="0" width="512" height="512"/>
                </clipPath>
                <g clip-path="url(#_clip11)">
                    <path d="M248,0C252.4,0 256,3.6 256,8C256,38.6 269.9,67 292.7,83.6L308.8,95.4C336,115.4 352,148.7 352,184C352,188.4 348.4,192 344,192C339.6,192 336,188.4 336,184C336,153.4 322.1,125 299.3,108.4L283.2,96.5C256,76.6 240,43.3 240,8C240,3.6 243.6,0 248,0ZM16,272L16,448C16,474.5 37.5,496 64,496L448,496C474.5,496 496,474.5 496,448L496,320C496,293.5 474.5,272 448,272L277.3,272C275.9,272 274.6,272 273.3,271.9C272.9,272 272.5,272 272,272L16,272ZM229.3,256L144,192C130.2,181.6 113.3,176 96,176C51.8,176 16,211.8 16,256L229.3,256ZM0,448L0,256C0,203 43,160 96,160C116.8,160 137,166.7 153.6,179.2L238.9,243.2C250,251.5 263.5,256 277.3,256L448,256C483.3,256 512,284.7 512,320L512,448C512,483.3 483.3,512 448,512L64,512C28.7,512 0,483.3 0,448ZM384,8C384,38.6 397.9,67 420.7,83.6L436.8,95.4C464,115.4 480,148.7 480,184C480,188.4 476.4,192 472,192C467.6,192 464,188.4 464,184C464,153.4 450.1,125 427.3,108.4L411.2,96.5C384,76.6 368,43.3 368,8C368,3.6 371.6,0 376,0C380.4,0 384,3.6 384,8ZM112,320C116.4,320 120,323.6 120,328L120,440C120,444.4 116.4,448 112,448C107.6,448 104,444.4 104,440L104,328C104,323.6 107.6,320 112,320ZM208,320C212.4,320 216,323.6 216,328L216,440C216,444.4 212.4,448 208,448C203.6,448 200,444.4 200,440L200,328C200,323.6 203.6,320 208,320ZM304,320C308.4,320 312,323.6 312,328L312,440C312,444.4 308.4,448 304,448C299.6,448 296,444.4 296,440L296,328C296,323.6 299.6,320 304,320ZM400,320C404.4,320 408,323.6 408,328L408,440C408,444.4 404.4,448 400,448C395.6,448 392,444.4 392,440L392,328C392,323.6 395.6,320 400,320ZM112,64C112,37.668 90.332,16 64,16C37.668,16 16,37.668 16,64C16,90.332 37.668,112 64,112C90.332,112 112,90.332 112,64ZM0,64C-0,28.891 28.891,0 64,0C99.109,-0 128,28.891 128,64C128,99.109 99.109,128 64,128C28.891,128 0,99.109 0,64Z" style="fill:rgb(47,190,238);fill-rule:nonzero;"/>
                </g>
            </g>
        </g>
        <g transform="matrix(0.0690534,-0.0690534,0.0690534,0.0690534,362.039,90.5097)">
            <g transform="matrix(1,0,0,1,-288,-256)">
                <clipPath id="_clip12">
                    <rect x="0" y="0" width="576" height="512"/>
                </clipPath>
                <g clip-path="url(#_clip12)">
                    <path d="M432,272C404.4,272 378.8,263.2 357.9,248.4L346.4,259.9C370.3,277.5 399.9,288 432,288C511.5,288 576,223.5 576,144C576,64.5 511.5,0 432,0C367.8,0 313.4,42 294.8,100L311.7,100C329.6,51 376.7,16 431.9,16C502.6,16 559.9,73.3 559.9,144C559.9,214.7 502.6,272 431.9,272L432,272ZM8,128C4.8,128 1.8,129.9 0.6,132.9C-0.6,135.9 -0,139.3 2.3,141.6L200,339.3L200,496L104,496C99.6,496 96,499.6 96,504C96,508.4 99.6,512 104,512L312,512C316.4,512 320,508.4 320,504C320,499.6 316.4,496 312,496L216,496L216,339.3L413.7,141.7C416,139.4 416.7,136 415.4,133C414.1,130 411.2,128.1 408,128.1L8,128.1L8,128ZM388.7,144L208,324.7L27.3,144L388.7,144Z" style="fill:rgb(198,105,221);fill-rule:nonzero;"/>
                </g>
            </g>
        </g>
        <g transform="matrix(0.0690534,-0.0690534,0.0690534,0.0690534,319.784,674.823)">
            <g transform="matrix(1,0,0,1,-224,-256)">
                <clipPath id="_clip13">
                    <rect x="0" y="0" width="448" height="512"/>
                </clipPath>
                <g clip-path="url(#_clip13)">
                    <path d="M16,8C16,3.6 12.4,0 8,0C3.6,0 0,3.6 0,8L0,142.8C0,155.3 2.7,167.6 7.8,179L95.7,373.6C107.3,399.4 133,416 161.3,416L232,416L232,496L104,496C99.6,496 96,499.6 96,504C96,508.4 99.6,512 104,512L376,512C380.4,512 384,508.4 384,504C384,499.6 380.4,496 376,496L248,496L248,416L364.7,416C389.2,416 410.8,400.1 418.2,376.7L447.7,282.4C448.5,280 448,277.3 446.5,275.3C445,273.3 442.6,272 440.1,272L72,272C70.5,272 69.1,272.4 67.9,273.1L38.5,208L344,208C348.4,208 352,204.4 352,200C352,195.6 348.4,192 344,192L31.2,192L22.3,172.4C18.2,163.1 16,153 16,142.8L16,8ZM110.3,367L74.6,288L429.1,288L402.9,371.9C397.7,388.6 382.2,400 364.7,400L161.3,400C139.3,400 119.3,387.1 110.3,367Z" style="fill:rgb(92,193,104);fill-rule:nonzero;"/>
                </g>
            </g>
        </g>
        <path d="M291.219,342.349L341.006,292.562" style="fill:none;stroke:rgb(255,170,51);stroke-width:2px;"/>
        <g transform="matrix(1,0,0,1,317.456,44.5831)">
            <path d="M291.219,342.349L341.006,292.562" style="fill:none;stroke:rgb(241,85,114);stroke-width:2px;"/>
        </g>
        <g transform="matrix(1,0,0,1,362.71,361.367)">
            <path d="M291.219,342.349L341.006,292.562" style="fill:none;stroke:rgb(47,190,238);stroke-width:2px;"/>
        </g>
        <g transform="matrix(1,0,0,1,111.543,-292.562)">
            <path d="M291.219,342.349L341.006,292.562" style="fill:none;stroke:rgb(92,193,104);stroke-width:2px;"/>
        </g>
        <g transform="matrix(1,0,0,1,749.643,-25.5653)">
            <path d="M291.219,342.349L341.006,292.562" style="fill:none;stroke:rgb(198,105,221);stroke-width:2px;"/>
        </g>
        <g transform="matrix(1,0,0,1,724.749,-181.691)">
            <path d="M291.219,342.349L341.006,292.562" style="fill:none;stroke:rgb(255,170,51);stroke-width:2px;"/>
        </g>
        <g transform="matrix(0.878876,0.121124,0.121124,0.878876,64.627,297.412)">
            <path d="M291.219,342.349L341.006,292.562" style="fill:none;stroke:rgb(253,205,73);stroke-width:2px;"/>
        </g>
        <g transform="matrix(0.668267,0,0,0.668267,911.813,384.478)">
            <path d="M291.219,342.349L341.006,292.562" style="fill:none;stroke:rgb(198,105,221);stroke-width:2.99px;"/>
        </g>
        <g transform="matrix(0.668267,0,0,0.668267,882.504,232.768)">
            <path d="M291.219,342.349L341.006,292.562" style="fill:none;stroke:rgb(253,205,73);stroke-width:2.99px;"/>
        </g>
        <g transform="matrix(0.668267,0,0,0.668267,1010.63,104.639)">
            <path d="M291.219,342.349L341.006,292.562" style="fill:none;stroke:rgb(81,169,246);stroke-width:2.99px;"/>
        </g>
        <g transform="matrix(0.668267,0,0,0.668267,722.469,211.784)">
            <path d="M291.219,342.349L341.006,292.562" style="fill:none;stroke:rgb(81,169,246);stroke-width:2.99px;"/>
        </g>
        <g transform="matrix(0.668267,0,0,0.668267,269.92,121.274)">
            <path d="M291.219,342.349L341.006,292.562" style="fill:none;stroke:rgb(198,105,221);stroke-width:2.99px;"/>
        </g>
        <g transform="matrix(0.668267,0,0,0.668267,-194.612,42.7483)">
            <path d="M291.219,342.349L341.006,292.562" style="fill:none;stroke:rgb(92,193,104);stroke-width:2.99px;"/>
        </g>
        <g transform="matrix(1,0,0,1,297.094,-116.075)">
            <path d="M291.219,342.349L341.006,292.562" style="fill:none;stroke:rgb(255,170,51);stroke-width:4px;"/>
        </g>
        <g transform="matrix(1,0,0,1,-180.348,-181.691)">
            <path d="M291.219,342.349L341.006,292.562" style="fill:none;stroke:rgb(198,105,221);stroke-width:2px;"/>
        </g>
        <g transform="matrix(1,0,0,1,-114.732,295.751)">
            <path d="M291.219,342.349L341.006,292.562" style="fill:none;stroke:rgb(47,190,238);stroke-width:2px;"/>
        </g>
        <g transform="matrix(1,0,0,1,647.581,255.516)">
            <path d="M291.219,342.349L341.006,292.562" style="fill:none;stroke:rgb(81,169,246);stroke-width:2px;"/>
        </g>
        <g transform="matrix(1,0,0,1,-155.454,-25.5653)">
            <path d="M291.219,342.349L341.006,292.562" style="fill:none;stroke:rgb(255,170,51);stroke-width:2px;"/>
        </g>
        <g transform="matrix(1,0,0,1,-19.6896,-161.33)">
            <path d="M291.219,342.349L341.006,292.562" style="fill:none;stroke:rgb(241,85,114);stroke-width:3px;"/>
        </g>
        <g transform="matrix(1,0,0,1,181.691,361.367)">
            <path d="M291.219,342.349L341.006,292.562" style="fill:none;stroke:rgb(198,105,221);stroke-width:3px;"/>
        </g>
        <g transform="matrix(1,0,0,1,414.544,-233.525)">
            <path d="M291.219,342.349L341.006,292.562" style="fill:none;stroke:rgb(92,193,104);stroke-width:3px;"/>
        </g>
        <g transform="matrix(1,0,0,1,885.407,-161.33)">
            <path d="M291.219,342.349L341.006,292.562" style="fill:none;stroke:rgb(241,85,114);stroke-width:3px;"/>
        </g>
        <g transform="matrix(1,0,0,1,25.5653,155.454)">
            <path d="M291.219,342.349L341.006,292.562" style="fill:none;stroke:rgb(92,193,104);stroke-width:3px;"/>
        </g>
        <g transform="matrix(0.855297,0,0,0.855297,551.604,264.152)">
            <path d="M291.219,342.349L341.006,292.562" style="fill:none;stroke:rgb(241,85,114);stroke-width:3.51px;"/>
        </g>
        <g transform="matrix(0.855297,0,0,0.855297,384.489,250.248)">
            <path d="M291.219,342.349L341.006,292.562" style="fill:none;stroke:rgb(81,169,246);stroke-width:3.51px;"/>
        </g>
        <g transform="matrix(0.844607,-0.0643591,-0.0643591,0.844607,997.948,227.395)">
            <path d="M291.219,342.349L341.006,292.562" style="fill:none;stroke:rgb(92,193,104);stroke-width:3.84px;"/>
        </g>
        <g transform="matrix(0.711356,0.0339227,0.0339227,0.711356,-207.246,187.61)">
            <path d="M291.219,342.349L341.006,292.562" style="fill:none;stroke:rgb(198,105,221);stroke-width:5.37px;"/>
        </g>
        <g transform="matrix(1.22936,0,0,1.22936,838.975,282.846)">
            <path d="M291.219,342.349L341.006,292.562" style="fill:none;stroke:rgb(255,170,51);stroke-width:3.25px;"/>
        </g>
        <g transform="matrix(1,0,0,1,-19.6896,-161.33)">
            <path d="M291.219,342.349L341.006,292.562" style="fill:none;stroke:rgb(81,169,246);stroke-width:3px;"/>
        </g>
        <g transform="matrix(0.841093,-5.55112e-17,5.55112e-17,0.841093,491.035,-28.3176)">
            <path d="M291.219,342.349L341.006,292.562" style="fill:none;stroke:rgb(198,105,221);stroke-width:3.57px;"/>
        </g>
        <g transform="matrix(0.841093,-5.55112e-17,5.55112e-17,0.841093,242.336,220.382)">
            <path d="M291.219,342.349L341.006,292.562" style="fill:none;stroke:rgb(47,190,238);stroke-width:4.76px;"/>
        </g>
        <g transform="matrix(1,0,0,1,136.436,-136.436)">
            <path d="M291.219,342.349L341.006,292.562" style="fill:none;stroke:rgb(198,105,221);stroke-width:1px;"/>
        </g>
        <g transform="matrix(0.869047,0.130953,0.130953,0.869047,525.18,379.917)">
            <path d="M291.219,342.349L341.006,292.562" style="fill:none;stroke:rgb(92,193,104);stroke-width:1px;"/>
        </g>
        <g transform="matrix(1,0,0,1,588.985,-45.9265)">
            <path d="M291.219,342.349L341.006,292.562" style="fill:none;stroke:rgb(253,205,73);stroke-width:1px;"/>
        </g>
        <g transform="matrix(1,0,0,1,-135.093,135.093)">
            <path d="M291.219,342.349L341.006,292.562" style="fill:none;stroke:rgb(81,169,246);stroke-width:1px;"/>
        </g>
        <g transform="matrix(0.788453,0,0,0.788453,531.659,145.428)">
            <path d="M291.219,342.349L341.006,292.562" style="fill:none;stroke:rgb(253,205,73);stroke-width:1.27px;"/>
        </g>
        <g transform="matrix(0.788453,0,0,0.788453,632.23,-136.162)">
            <path d="M291.219,342.349L341.006,292.562" style="fill:none;stroke:rgb(255,170,51);stroke-width:1.27px;"/>
        </g>
        <g transform="matrix(0.59134,0.197113,0.197113,0.59134,917.307,-240.22)">
            <path d="M291.219,342.349L341.006,292.562" style="fill:none;stroke:rgb(198,105,221);stroke-width:1.27px;"/>
        </g>
        <g transform="matrix(0.551841,0,0,0.551841,83.348,-161.448)">
            <path d="M291.219,342.349L341.006,292.562" style="fill:none;stroke:rgb(81,169,246);stroke-width:1.81px;"/>
        </g>
        <g transform="matrix(1,0,0,1,272.201,-272.201)">
            <path d="M291.219,342.349L341.006,292.562" style="fill:none;stroke:rgb(81,169,246);stroke-width:1px;"/>
        </g>
        <g transform="matrix(0.773898,-0.131383,-0.131383,0.773898,-155.317,381.809)">
            <path d="M291.219,342.349L341.006,292.562" style="fill:none;stroke:rgb(47,190,238);stroke-width:4.67px;"/>
        </g>
    </pattern>
    <rect fill="url(#pattern)" width="5120" height="1440" />
</svg>
